<?xml version="1.0" encoding="utf-8"?>
<!-- Generator: Adobe Illustrator 16.2.1, SVG Export Plug-In . SVG Version: 6.00 Build 0)  -->
<!DOCTYPE svg PUBLIC "-//W3C//DTD SVG 1.1//EN" "http://www.w3.org/Graphics/SVG/1.1/DTD/svg11.dtd">
<svg version="1.1" id="Layer_1" xmlns="http://www.w3.org/2000/svg" xmlns:xlink="http://www.w3.org/1999/xlink" x="0px" y="0px"
	 width="70.932px" height="51.273px" viewBox="0 0 70.932 51.273" enable-background="new 0 0 70.932 51.273" xml:space="preserve">
<g>
	<path opacity="0.34" fill="#BDBEC0" d="M10.533,28.491c0,10.917,8.853,19.769,19.77,19.769c2.854,0,5.567-0.61,8.017-1.7
		c2.454,1.09,5.164,1.7,8.02,1.7c10.918,0,19.768-8.852,19.768-19.769c0-10.918-8.85-19.769-19.768-19.769
		c-2.855,0-5.565,0.609-8.02,1.699c-2.449-1.09-5.162-1.699-8.017-1.699C19.385,8.722,10.533,17.573,10.533,28.491z M38.319,19.346
		c2.539,2.229,4.146,5.499,4.146,9.145c0,3.645-1.607,6.914-4.146,9.144c-2.54-2.229-4.143-5.499-4.143-9.144
		C34.176,24.845,35.779,21.576,38.319,19.346z M46.338,40.655c-0.148,0-0.303-0.006-0.453-0.01c2.619-3.354,4.186-7.57,4.186-12.154
		c0-4.585-1.566-8.801-4.186-12.153c0.15-0.005,0.305-0.012,0.453-0.012c6.721,0,12.166,5.446,12.166,12.165
		S53.059,40.655,46.338,40.655z M18.139,28.491c0-6.719,5.444-12.165,12.163-12.165c0.149,0,0.303,0.007,0.452,0.012
		c-2.621,3.353-4.186,7.568-4.186,12.153c0,4.584,1.564,8.801,4.186,12.154c-0.149,0.004-0.303,0.01-0.452,0.01
		C23.583,40.655,18.139,35.209,18.139,28.491z"/>
	<path fill="#FFFFFF" d="M4.827,22.785c0,10.918,8.853,19.769,19.771,19.769c10.916,0,19.767-8.851,19.767-19.769
		S35.513,3.014,24.597,3.014C13.679,3.014,4.827,11.867,4.827,22.785z M12.43,22.785c0-6.719,5.445-12.165,12.167-12.165
		c6.716,0,12.163,5.446,12.163,12.165c0,6.718-5.447,12.165-12.163,12.165C17.875,34.95,12.43,29.502,12.43,22.785z"/>
	<path fill="#FFFFFF" d="M20.865,22.785c0,10.918,8.851,19.769,19.767,19.769c10.92,0,19.77-8.851,19.77-19.769
		s-8.85-19.771-19.77-19.771C29.715,3.014,20.865,11.867,20.865,22.785z M28.466,22.785c0-6.719,5.447-12.165,12.165-12.165
		c6.719,0,12.168,5.446,12.168,12.165c0,6.718-5.449,12.165-12.168,12.165C33.914,34.95,28.466,29.502,28.466,22.785z"/>
	<path opacity="0.73" fill="#BDBEC0" d="M40.183,34.932c0.148,0.006,0.299,0.018,0.448,0.018c2.363,0,4.564-0.676,6.432-1.84
		c-1.332,3.809-3.795,7.087-6.988,9.43c-2.647-0.074-5.167-0.672-7.457-1.689C35.604,39.524,38.198,37.477,40.183,34.932z"/>
	<path opacity="0.73" fill="#BDBEC0" d="M35.795,18.027c-0.722-1.694-1.82-3.188-3.185-4.385c2.036-1.787,4.673-2.906,7.568-3.012
		c0.943,1.208,1.751,2.526,2.394,3.935C39.942,14.971,37.585,16.219,35.795,18.027z"/>
</g>
</svg>
