<?xml version="1.0" encoding="utf-8"?>
<!-- Generator: Adobe Illustrator 16.2.1, SVG Export Plug-In . SVG Version: 6.00 Build 0)  -->
<!DOCTYPE svg PUBLIC "-//W3C//DTD SVG 1.1//EN" "http://www.w3.org/Graphics/SVG/1.1/DTD/svg11.dtd">
<svg version="1.1" id="Layer_1" xmlns="http://www.w3.org/2000/svg" xmlns:xlink="http://www.w3.org/1999/xlink" x="0px" y="0px"
	 width="70px" height="51px" viewBox="0 0 70 51" enable-background="new 0 0 70 51" xml:space="preserve">
<g>
	<path fill="#FFFFFF" d="M14.747,20.498c0,0-2.505-0.77-2.019-2.96c0.486-2.194,3.163-4.382,3.495-5.162
		c0.336-0.78,0.737-1.387,1.143-1.776c0.407-0.394,1.828-2.218,0.093-4.526c0,0,7.037-1.308,14.294,7.333
		c4.98,5.932,5.126,8.48,6.681,10.32c1.815,2.146,6.29,2.256,9.067,6.613c0,0,1.55-1.522,4.692-0.557
		c2.873,0.887,4.081,3.819,3.427,6.777c-0.655,2.954-5.071,4.062-6.268,3.904c0,0,3.005-1.632,2.731-4.851
		c-0.172-2.059-1.817-4.094-4.011-3.615c0,0,0.677,4.428-2.082,7.721c0,0,3.048,6.021,0.672,9.986c0,0-3.746-10.829-5.018-12.34
		c-1.269-1.51-2.883-5.078-7.975-6.475c-5.094-1.395-8.461-5.989-8.426-6.145c0.033-0.154,0.033-0.154,0.033-0.154l-1.939,0.322
		c0,0-0.638,0.232-0.84,1.149c-0.205,0.917,0.548,1.617,0.709,2.081c0.167,0.464,1.394,0.471,1.394,0.471l0.944-0.862l2.417,3.319
		l-2.783,0.506c0,0-1.858-0.786-2.387-1.062c-0.53-0.281-1.976-1.725-2.331-3.727c-0.357-2.007-0.75-3.376-0.75-3.376
		s-0.06-1.421,1.771-1.7c1.822-0.283,2.482-0.351,2.482-0.351s1.252-2.291,0.579-3.349c-0.674-1.059-3.007-1.627-3.007-1.627
		s-1.97,1.647-3.618,1.603c-1.648-0.041-2.065,1.845-2.065,1.845S15.238,20.704,14.747,20.498z"/>
	<path fill="#FFFFFF" d="M24.817,21.363c0,0,5.568-3.264,9.62-9.719c0.908-1.449,3.03-2.469,4.363-2.567
		c1.328-0.097,13.283-5.893,14.239-7.25c0,0-1.37,25.688-23.538,22.928"/>
	<path fill="#CACACA" d="M21.805,11.333c0,0,0.595,2.962-0.268,5.055l0.979,0.31C22.517,16.697,23.606,13.83,21.805,11.333z"/>
	<path fill="#CACACA" d="M38.765,24.071c0,0-7.195,1.371-11.069,0.664c0,0,8.726,2.983,13.053,0.506L38.765,24.071z"/>
	<path fill="#B1CDBE" d="M53.401,1.667c0,0-4.656,8.479-13.381,11.347c0,0,9.628-2.152,14.062-7.514L53.401,1.667z"/>
	<path fill="#B1CDBE" d="M52.384,7.691c0,0-4.184,8.401-16.08,9.752c0,0,10.684,0.394,18.149-7.063
		C61.923,2.922,52.384,7.691,52.384,7.691z"/>
	<path fill="#B1CDBE" d="M49.769,13.958c0,0-4.398,8.504-16.193,6.883c0,0,9.38,1.539,16.092-0.289"/>
	<path fill="#B1CDBE" d="M47.294,29.229c0,0,0.899,3.012,0.853,4.041l1.168-0.295C49.314,32.976,49.404,31.172,47.294,29.229z"/>
	<path fill="#B1CDBE" d="M17.208,12.916c0.109-0.491,0.598-0.802,1.092-0.693c0.494,0.109,0.807,0.6,0.698,1.091
		c-0.109,0.493-0.601,0.808-1.094,0.698C17.409,13.904,17.098,13.41,17.208,12.916z"/>
	<path fill="#CACACA" d="M32.094,13.363c0,0-2.42,3.574-5.73,6.947c0,0,4.912-2.849,6.491-6.167"/>
</g>
</svg>
