<?xml version="1.0" encoding="utf-8"?>
<!-- Generator: Adobe Illustrator 16.2.1, SVG Export Plug-In . SVG Version: 6.00 Build 0)  -->
<!DOCTYPE svg PUBLIC "-//W3C//DTD SVG 1.1//EN" "http://www.w3.org/Graphics/SVG/1.1/DTD/svg11.dtd">
<svg version="1.1" id="Layer_1" xmlns="http://www.w3.org/2000/svg" xmlns:xlink="http://www.w3.org/1999/xlink" x="0px" y="0px"
	 width="70px" height="51px" viewBox="0 0 70 51" enable-background="new 0 0 70 51" xml:space="preserve">
<g>
	<path fill="#E6E6E5" d="M63.265,14.824h-7.788v7.789H50.45v-5.407l-2.762-2.382h-5.026V9.418l-2.761-2.382h-7.788v7.788h-7.789
		v7.789h-5.028v-5.407l-2.76-2.382H8.748v7.789l2.76,2.379h5.028V30.4l2.76,2.382h5.028v5.406h-7.788v7.788l2.76,2.382h7.788V40.57
		h5.029v5.406l2.761,2.382h7.788V40.57h5.026v5.406l2.762,2.382h7.786V40.57l-2.76-2.382H50.45v-5.406h7.786v-7.79h7.788v-7.787
		L63.265,14.824z M32.113,24.993V30.4h-5.029v-5.408H32.113z M42.662,30.4v-5.408h5.026V30.4H42.662z"/>
	<polygon fill="#D1AE8C" points="37.887,12.812 30.099,12.812 27.338,10.43 35.126,10.43 	"/>
	<polygon fill="#D9BCA2" points="37.887,12.812 37.887,5.024 35.126,2.642 35.126,10.43 	"/>
	<polygon fill="#D1AE8C" points="30.099,20.6 22.312,20.6 19.55,18.218 27.338,18.218 	"/>
	<polygon fill="#D9BCA2" points="30.099,20.6 30.099,12.812 27.338,10.43 27.338,18.218 	"/>
	<polygon fill="#D1AE8C" points="37.887,20.6 30.099,20.6 27.338,18.218 35.126,18.218 	"/>
	<polygon fill="#D9BCA2" points="37.887,20.6 37.887,12.812 35.126,10.43 35.126,18.218 	"/>
	<polygon fill="#D1AE8C" points="37.887,28.387 30.099,28.387 27.338,26.007 35.126,26.007 	"/>
	<polygon fill="#D9BCA2" points="37.887,28.387 37.887,20.6 35.126,18.218 35.126,26.007 	"/>
	<polygon fill="#D1AE8C" points="45.676,20.6 37.887,20.6 35.126,18.218 42.916,18.218 	"/>
	<polygon fill="#D9BCA2" points="45.676,20.6 45.676,12.812 42.916,10.43 42.916,18.218 	"/>
	<polygon fill="#D1AE8C" points="53.464,28.387 45.676,28.387 42.916,26.007 50.704,26.007 	"/>
	<polygon fill="#D9BCA2" points="53.464,28.387 53.464,20.6 50.704,18.218 50.704,26.007 	"/>
	<polygon fill="#D1AE8C" points="61.252,20.6 53.464,20.6 50.704,18.218 58.491,18.218 	"/>
	<polygon fill="#D9BCA2" points="61.252,20.6 61.252,12.812 58.491,10.43 58.491,18.218 	"/>
	<polygon fill="#D1AE8C" points="14.524,20.6 6.736,20.6 3.975,18.218 11.763,18.218 	"/>
	<polygon fill="#D9BCA2" points="14.524,20.6 14.524,12.812 11.763,10.43 11.763,18.218 	"/>
	<polygon fill="#D1AE8C" points="22.312,28.387 14.524,28.387 11.763,26.007 19.55,26.007 	"/>
	<polygon fill="#D9BCA2" points="22.312,28.387 22.312,20.6 19.55,18.218 19.55,26.007 	"/>
	<polygon fill="#D1AE8C" points="30.099,36.176 22.312,36.176 19.55,33.794 27.338,33.794 	"/>
	<polygon fill="#D9BCA2" points="30.099,36.176 30.099,28.387 27.338,26.007 27.338,33.794 	"/>
	<polygon fill="#D1AE8C" points="37.887,36.176 30.099,36.176 27.338,33.794 35.126,33.794 	"/>
	<polygon fill="#D9BCA2" points="37.887,36.176 37.887,28.387 35.126,26.007 35.126,33.794 	"/>
	<polygon fill="#D1AE8C" points="37.887,43.964 30.099,43.964 27.338,41.582 35.126,41.582 	"/>
	<polygon fill="#D9BCA2" points="37.887,43.964 37.887,36.176 35.126,33.794 35.126,41.582 	"/>
	<polygon fill="#D1AE8C" points="22.312,43.964 14.524,43.964 11.763,41.582 19.55,41.582 	"/>
	<polygon fill="#D9BCA2" points="22.312,43.964 22.312,36.176 19.55,33.794 19.55,41.582 	"/>
	<polygon fill="#D1AE8C" points="45.676,36.176 37.887,36.176 35.126,33.794 42.916,33.794 	"/>
	<polygon fill="#D9BCA2" points="45.676,36.176 45.676,28.387 42.916,26.007 42.916,33.794 	"/>
	<g>
		<rect x="27.338" y="2.642" fill="#F2E8DF" width="7.788" height="7.788"/>
		<rect x="19.55" y="10.43" fill="#F2E8DF" width="7.788" height="7.788"/>
		<rect x="27.338" y="10.43" fill="#F2E8DF" width="7.788" height="7.788"/>
		<rect x="27.338" y="18.218" fill="#F2E8DF" width="7.788" height="7.79"/>
		<rect x="35.126" y="10.43" fill="#F2E8DF" width="7.79" height="7.788"/>
		<rect x="42.916" y="18.218" fill="#F2E8DF" width="7.788" height="7.79"/>
		<rect x="50.704" y="10.43" fill="#F2E8DF" width="7.787" height="7.788"/>
		<rect x="3.975" y="10.43" fill="#F2E8DF" width="7.788" height="7.788"/>
		<rect x="11.763" y="18.218" fill="#F2E8DF" width="7.787" height="7.79"/>
		<rect x="19.55" y="26.007" fill="#F2E8DF" width="7.788" height="7.787"/>
		<rect x="27.338" y="26.007" fill="#F2E8DF" width="7.788" height="7.787"/>
		<rect x="27.338" y="33.794" fill="#F2E8DF" width="7.788" height="7.788"/>
		<rect x="11.763" y="33.794" fill="#F2E8DF" width="7.787" height="7.788"/>
		<rect x="35.126" y="26.007" fill="#F2E8DF" width="7.79" height="7.787"/>
		<rect x="42.916" y="33.794" fill="#F2E8DF" width="7.788" height="7.788"/>
	</g>
	<polygon fill="#D1AE8C" points="53.464,43.964 45.676,43.964 42.916,41.582 50.704,41.582 	"/>
	<polygon fill="#D9BCA2" points="53.464,43.964 53.464,36.176 50.704,33.794 50.704,41.582 	"/>
</g>
</svg>
