<?xml version="1.0" encoding="utf-8"?>
<!-- Generator: Adobe Illustrator 16.2.1, SVG Export Plug-In . SVG Version: 6.00 Build 0)  -->
<!DOCTYPE svg PUBLIC "-//W3C//DTD SVG 1.1//EN" "http://www.w3.org/Graphics/SVG/1.1/DTD/svg11.dtd">
<svg version="1.1" id="Layer_1" xmlns="http://www.w3.org/2000/svg" xmlns:xlink="http://www.w3.org/1999/xlink" x="0px" y="0px"
	 width="191.608px" height="142.092px" viewBox="0 0 191.608 142.092" enable-background="new 0 0 191.608 142.092"
	 xml:space="preserve">
<g>
	<path opacity="0.34" fill="#BDBEC0" d="M173.93,68.204l-11.951-5.275l-0.258-0.682c-1.716-4.614-4.183-8.885-7.333-12.695
		l-0.482-0.586l1.8-12.758L138.1,26.041l-9.509,8.292l-0.797-0.134c-4.196-0.708-8.351-0.771-12.528-0.271l-13.653-7.887
		l-1.922,1.676L88.6,33.854c-3.99-0.424-7.956-0.33-11.953,0.345l-0.706,0.117L65.12,26.653l-17.16,9.5l2.611,12.76l-0.527,0.638
		c-3.153,3.808-5.622,8.081-7.335,12.697l-0.258,0.682l-11.952,5.275l0.432,18.935l11.951,5.275l0.256,0.68
		c1.713,4.618,4.185,8.887,7.333,12.696l0.487,0.587l-1.805,12.758l17.608,10.164l9.509-8.289l0.799,0.134
		c4.189,0.706,8.344,0.771,12.521,0.27l13.659,7.886l1.922-1.676l11.089-6.14c3.99,0.427,7.956,0.333,11.956-0.34l0.698-0.12
		l10.821,7.664l17.161-9.499l-2.607-12.761l0.525-0.635c3.155-3.81,5.622-8.081,7.338-12.699l0.258-0.68l11.946-5.275L173.93,68.204
		z M111.815,77.673c0,8.237-3.647,15.627-9.387,20.695c-5.74-5.068-9.383-12.458-9.383-20.695c0-8.243,3.646-15.632,9.388-20.698
		C108.172,62.041,111.815,69.43,111.815,77.673z M84.184,105.303c-15.236,0-27.628-12.395-27.628-27.63
		c0-15.238,12.395-27.635,27.628-27.635c0.643,0,1.272,0.054,1.906,0.096c-2.934,3.664-5.266,7.725-6.895,12.113l-0.253,0.682
		l-11.951,5.275l0.429,18.935l11.952,5.275l0.255,0.68c1.627,4.379,3.955,8.435,6.876,12.092
		C85.736,105.251,84.967,105.303,84.184,105.303z M120.677,105.303c-0.647,0-1.275-0.052-1.908-0.096
		c2.935-3.664,5.265-7.725,6.892-12.113l0.258-0.68l11.952-5.275l-0.432-18.935l-11.951-5.275l-0.254-0.682
		c-1.631-4.377-3.952-8.433-6.878-12.092c0.769-0.063,1.533-0.117,2.321-0.117c15.233,0,27.63,12.397,27.63,27.635
		C148.307,92.908,135.911,105.303,120.677,105.303z"/>
	<path fill="#F5F6F6" d="M124.189,54.954l-11.951-5.275l-0.254-0.682c-1.716-4.614-4.182-8.885-7.338-12.695l-0.482-0.583
		l1.805-12.758L88.362,12.793l-9.511,8.29l-0.799-0.134c-4.904-0.828-9.752-0.828-14.654,0l-0.704,0.117l-10.821-7.661
		l-17.163,9.499l2.611,12.76L36.795,36.3c-3.153,3.812-5.622,8.081-7.337,12.697L29.2,49.679l-11.949,5.275l0.429,18.935
		l11.954,5.275l0.255,0.68c1.714,4.618,4.183,8.887,7.333,12.696l0.485,0.586l-1.803,12.758l17.606,10.165l9.508-8.289l0.802,0.134
		c4.902,0.827,9.75,0.827,14.655,0l0.703-0.117L90,115.438l17.159-9.5l-2.607-12.76l0.525-0.635c3.15-3.81,5.622-8.081,7.338-12.699
		l0.253-0.68l11.951-5.275L124.189,54.954z M70.934,92.053c-15.236,0-27.628-12.395-27.628-27.631
		c0-15.237,12.395-27.632,27.628-27.632c15.241,0,27.632,12.395,27.632,27.632C98.566,79.658,86.167,92.053,70.934,92.053z"/>
	<path fill="#F5F6F6" d="M160.68,54.954l-11.951-5.275l-0.258-0.682c-1.712-4.614-4.183-8.885-7.333-12.695l-0.483-0.583
		l1.801-12.758L124.85,12.793l-9.509,8.29l-0.797-0.134c-4.904-0.828-9.758-0.828-14.657,0l-0.703,0.117l-10.822-7.661
		l-17.161,9.499l2.609,12.76L73.285,36.3c-3.156,3.812-5.622,8.081-7.34,12.697l-0.253,0.682l-11.951,5.275l0.431,18.935
		l11.951,5.275l0.255,0.68c1.714,4.618,4.183,8.887,7.333,12.696l0.485,0.586l-1.8,12.758L90,116.049l9.512-8.289l0.797,0.134
		c4.904,0.827,9.753,0.827,14.657,0l0.698-0.117l10.826,7.661l17.16-9.5l-2.611-12.76l0.525-0.635
		c3.155-3.81,5.622-8.081,7.338-12.699l0.258-0.68l11.951-5.275L160.68,54.954z M107.426,92.053
		c-15.236,0-27.631-12.395-27.631-27.631c0-15.237,12.396-27.632,27.631-27.632c15.233,0,27.631,12.395,27.631,27.632
		C135.057,79.658,122.66,92.053,107.426,92.053z"/>
	<path opacity="0.73" fill="#BDBEC0" d="M95.36,51.538c3.304-2.082,8.939-5.08,15.124-6.077c-1.449-3.045-3.259-5.901-5.373-8.55
		c-6.082,0.511-11.599,2.992-15.925,6.817C91.683,45.935,93.789,48.57,95.36,51.538z"/>
	<path opacity="0.73" fill="#BDBEC0" d="M107.426,92.053c-0.474,0-0.933-0.037-1.396-0.068l-3.02,16.251
		c2.175,0.232,6.076,0.76,10.179-0.082c0,0,2.382-12.641,4.276-18.019C114.347,91.358,110.971,92.053,107.426,92.053z"/>
</g>
</svg>
