<svg xmlns="http://www.w3.org/2000/svg" width="149.667" height="32" viewBox="-58.833 0 149.667 32" enable-background="new -58.833 0 149.667 32"><g fill="#fff"><path d="M-5.847 9.153V5.73H-20.08V9.15h4.954v13.514h-4.955v3.424h14.233v-3.424h-5.405V9.153h5.405zM36.27 5.774v3.334h2.793v13.604H36.27v3.333H53.48V19.47h-3.424v3.242h-7.298v-5.496h5.406v-3.333h-5.406V9.108h7.027v3.244h3.695V5.774zM60.054 1v30h29.46V1h-29.46zm17.298 25.226c-7.388 0-10.72.09-10.72.09V5.865h8.737s9.008-.992 9.008 7.117v5.676c0-.002.36 7.566-7.026 7.566zM76.9 9.198h-6.125v13.514h6.396l3.154-3.965v-5.225L76.9 9.198zM20.865 11.72c0-2.882-3.063-2.432-3.063-2.432h-5.676v5.586s3.063-.09 5.586-.09 3.153-.54 3.153-3.063zM1.405 31h29.46V1H1.405v30zM8.162 5.774h11.712S24.92 5.504 24.92 11c0 5.495-3.063 5.766-3.063 5.766s3.062.18 3.062 4.414v4.685h-4.055V21.45s0-3.423-2.343-3.423c-2.342 0-6.396.09-6.396.09v7.838H8.162V5.775zM-57.514 31h29.46V1h-29.46v30zm6.576-25.135l2.793 15.406 3.604-15.405 4.414.09 3.604 15.586 2.703-15.675h3.874l-4.144 20.18h-5.046L-42.38 11.36l-3.513 14.774h-4.954l-4.145-20.27h4.054z"/></g></svg>