<svg xmlns="http://www.w3.org/2000/svg" width="149.667" height="32" viewBox="-58.833 0 149.667 32" enable-background="new -58.833 0 149.667 32"><path d="M-5.846 9.153V5.73H-20.08v3.423h4.955v13.514h-4.955v3.424h14.234v-3.42h-5.406V9.157h5.406zm42.116-3.38V9.11h2.793v13.604H36.27v3.333h17.21V19.47h-3.425v3.242h-7.298v-5.496h5.406v-3.333h-5.406V9.108h7.027v3.244h3.695V5.774zM60.055 1v30h29.46V1h-29.46zm17.297 25.226c-7.387 0-10.72.09-10.72.09V5.866h8.738s9.01-.993 9.01 7.115v5.68s.358 7.57-7.028 7.57zM76.9 9.198h-6.125v13.514h6.396l3.16-3.965v-5.225L76.9 9.198zM20.865 11.72c0-2.882-3.062-2.432-3.062-2.432h-5.676v5.586s3.062-.09 5.585-.09 3.153-.54 3.153-3.063zM1.405 31h29.46V1H1.405v30zM8.163 5.774h11.712S24.92 5.504 24.92 11c0 5.495-3.063 5.766-3.063 5.766s3.062.18 3.062 4.414v4.685h-4.06V21.45s0-3.423-2.345-3.423c-2.34 0-6.396.09-6.396.09v7.838H8.162V5.775zM-57.514 31h29.46V1h-29.46v30zm6.577-25.135l2.793 15.405 3.604-15.405 4.415.09 3.604 15.586 2.7-15.67h3.87l-4.146 20.18h-5.046l-3.24-14.69-3.514 14.778h-4.955l-4.144-20.27h4.053z" fill="#000333"/></svg>