<svg xmlns="http://www.w3.org/2000/svg" width="32" height="32"><path opacity=".75" fill="#fff" stroke="#A7A9AC" stroke-miterlimit="10" d="M1 16C1 7.714 7.715 1 16 1c8.286 0 15 6.715 15 15 0 8.286-6.715 15-15 15S1 24.287 1 16z"/><path fill="#A7A9AC" d="M16.46 8.18c-4.55 0-6.843 3.26-6.843 5.978 0 1.648.623 3.113 1.96 3.66.22.087.416 0 .48-.24.044-.17.15-.594.194-.77.07-.24.04-.325-.13-.534-.38-.453-.63-1.044-.63-1.878 0-2.42 1.81-4.585 4.71-4.585 2.57 0 3.99 1.57 3.99 3.67 0 2.76-1.22 5.09-3.03 5.09-1 0-1.75-.82-1.51-1.84.29-1.21.847-2.52.847-3.39 0-.78-.42-1.432-1.293-1.432-1.024 0-1.846 1.06-1.846 2.48 0 .903.306 1.514.306 1.514l-1.23 5.217c-.37 1.546-.06 3.445-.03 3.64.013.11.16.137.223.054.096-.123 1.315-1.63 1.73-3.133.115-.424.675-2.63.675-2.63.33.634 1.304 1.194 2.337 1.194 3.08 0 5.17-2.81 5.17-6.563 0-2.84-2.408-5.48-6.06-5.48h-.007z"/></svg>