<svg xmlns="http://www.w3.org/2000/svg" width="32" height="32"><path fill="#DD2127" d="M1 16C1 7.714 7.715 1 16 1s15 6.715 15 15c0 8.286-6.715 15-15 15S1 24.287 1 16z"/><path fill="#fff" d="M16.458 8.18c-4.548 0-6.84 3.26-6.84 5.978 0 1.648.62 3.114 1.958 3.66.22.087.416.002.48-.24.044-.17.15-.593.194-.77.065-.24.04-.324-.138-.533-.384-.453-.63-1.044-.63-1.88 0-2.417 1.81-4.583 4.712-4.583 2.572 0 3.984 1.57 3.984 3.67 0 2.76-1.222 5.09-3.035 5.09-1.002 0-1.752-.827-1.512-1.845.29-1.213.85-2.52.85-3.397 0-.783-.42-1.438-1.29-1.438-1.02 0-1.84 1.06-1.84 2.48 0 .903.31 1.514.31 1.514l-1.23 5.217c-.363 1.548-.05 3.446-.03 3.64.02.11.16.138.23.055.098-.125 1.316-1.632 1.73-3.135.117-.425.676-2.632.676-2.632.33.64 1.306 1.2 2.34 1.2 3.077 0 5.165-2.8 5.165-6.56 0-2.84-2.406-5.48-6.06-5.48z"/></svg>