<?xml version="1.0" encoding="utf-8"?>
<!-- Generator: Adobe Illustrator 16.2.1, SVG Export Plug-In . SVG Version: 6.00 Build 0)  -->
<!DOCTYPE svg PUBLIC "-//W3C//DTD SVG 1.1//EN" "http://www.w3.org/Graphics/SVG/1.1/DTD/svg11.dtd">
<svg version="1.1" id="Layer_1" xmlns="http://www.w3.org/2000/svg" xmlns:xlink="http://www.w3.org/1999/xlink" x="0px" y="0px"
	 width="64.706px" height="46.157px" viewBox="0 0 64.706 46.157" enable-background="new 0 0 64.706 46.157" xml:space="preserve">
<g>
	<path fill="#FFFFFF" d="M17.939,29.751c3.685,7.961,13.125,11.429,21.085,7.743c7.965-3.686,11.43-13.128,7.744-21.089
		s-13.127-11.43-21.09-7.742C17.719,12.348,14.254,21.791,17.939,29.751z"/>
	<path opacity="0.73" fill="#BDBEC0" d="M20.194,33.3c1.394,1.659,3.092,2.986,4.972,3.939c3.632-1.347,7.542-2.979,11.513-4.817
		s7.746-3.762,11.123-5.662c0.49-2.049,0.578-4.203,0.213-6.338c-0.217,0.133-0.43,0.266-0.65,0.399
		c-1.357,1.268-3.041,2.102-4.891,2.798c-2.398,1.296-5.064,2.64-8.016,4.006c-2.952,1.367-5.699,2.527-8.239,3.518
		c-1.728,0.961-3.454,1.705-5.298,1.92C20.675,33.144,20.435,33.221,20.194,33.3z"/>
	<g>
		<path fill="#FFFFFF" d="M35.433,29.732c-7.149,3.31-14.108,5.958-19.593,7.458c-7.227,1.977-10.826,1.708-12.031-0.898
			c-1.206-2.604,0.916-5.521,7.1-9.753c4.694-3.212,11.214-6.804,18.364-10.113c7.153-3.311,14.11-5.959,19.597-7.459
			c7.227-1.976,10.824-1.707,12.029,0.898c1.207,2.605-0.916,5.522-7.098,9.754C49.106,22.831,42.585,26.422,35.433,29.732z
			 M7.513,33.244c4.302-0.321,13.237-2.54,25.698-8.309c12.466-5.769,19.938-11.146,22.966-14.218
			c-4.301,0.322-13.238,2.54-25.699,8.309C18.016,24.795,10.542,30.172,7.513,33.244z"/>
	</g>
</g>
</svg>
