<?xml version="1.0" encoding="utf-8"?>
<!-- Generator: Adobe Illustrator 16.2.1, SVG Export Plug-In . SVG Version: 6.00 Build 0)  -->
<!DOCTYPE svg PUBLIC "-//W3C//DTD SVG 1.1//EN" "http://www.w3.org/Graphics/SVG/1.1/DTD/svg11.dtd">
<svg version="1.1" id="Layer_1" xmlns="http://www.w3.org/2000/svg" xmlns:xlink="http://www.w3.org/1999/xlink" x="0px" y="0px"
	 width="49.83px" height="45.449px" viewBox="0 0 49.83 45.449" enable-background="new 0 0 49.83 45.449" xml:space="preserve">
<g>
	<g opacity="0.34">
		<path fill="#BDBEC0" d="M39.023,42.286H27.296V18.41h-3.15v23.876H12.419V18.41H4.98V4.778h11.729v9.344h3.15V4.778h11.727v9.344
			h3.15V4.778h11.729V18.41h-7.441V42.286z M31.585,37.997h3.15V18.41h-3.15V37.997z M16.708,37.997h3.15V18.41h-3.15V37.997z
			 M39.023,14.122h3.154V9.066h-3.154V14.122z M24.146,14.122h3.15V9.066h-3.15V14.122z M9.269,14.122h3.15V9.066h-3.15V14.122z"/>
	</g>
	<polygon fill="none" stroke="#FFFFFF" stroke-width="4.2883" stroke-miterlimit="10" points="3.365,12.507 3.365,3.164 
		10.806,3.164 10.806,36.383 18.244,36.383 18.244,20.524 25.683,20.524 25.683,36.383 33.123,36.383 33.123,3.164 40.562,3.164 
		40.562,12.507 	"/>
	<g>
		<rect x="8.666" y="14.509" fill="#B4B4B4" width="4.236" height="2.977"/>
		<rect x="30.994" y="14.509" fill="#B4B4B4" width="4.234" height="2.977"/>
	</g>
	
		<rect x="18.244" y="3.164" fill="none" stroke="#FFFFFF" stroke-width="4.2883" stroke-miterlimit="10" width="7.439" height="9.344"/>
</g>
</svg>
