<svg xmlns="http://www.w3.org/2000/svg" width="32" height="32"><circle fill="#68ADD3" cx="16" cy="16" r="15"/><path fill="#fff" d="M23.84 11.626c-.645.293-1.338.48-2.068.54-.502-.67-1.273-1.135-2.174-1.23-1.723-.19-3.27 1.06-3.457 2.782-.02.246-.02.486.01.72-2.58-.413-4.74-1.903-6.08-3.964-.31.436-.53.955-.59 1.527-.11 1.09.33 2.1 1.11 2.75-.51-.07-.98-.26-1.37-.54v.04c-.164 1.52.77 2.9 2.174 3.34-.27.05-.55.05-.834.02-.2-.02-.397-.06-.586-.12.264 1.29 1.32 2.31 2.686 2.49-1.16.73-2.56 1.08-4.02.92-.25-.03-.504-.07-.74-.122 1.283 1.034 2.87 1.73 4.633 1.92 5.74.624 9.4-3.79 9.843-7.92.014-.136.03-.27.035-.406.656-.376 1.25-.866 1.73-1.45-.59.19-1.21.29-1.85.3.69-.32 1.25-.875 1.56-1.58z"/></svg>