<svg xmlns="http://www.w3.org/2000/svg" width="32" height="32"><circle opacity=".75" fill="#fff" stroke="#A7A9AC" stroke-miterlimit="10" cx="16" cy="16" r="15"/><path fill="#A7A9AC" d="M23.84 11.626c-.645.293-1.338.48-2.068.54-.502-.67-1.272-1.135-2.174-1.23-1.723-.19-3.27 1.06-3.458 2.782-.027.246-.025.486.002.72-2.578-.413-4.744-1.903-6.082-3.964-.318.436-.533.955-.594 1.527-.115 1.09.33 2.1 1.11 2.75-.51-.07-.98-.26-1.376-.54l-.004.04c-.164 1.52.77 2.9 2.174 3.34-.27.05-.55.05-.836.02-.2-.02-.395-.06-.584-.11.264 1.28 1.32 2.31 2.686 2.487-1.16.724-2.56 1.074-4.023.916-.25-.026-.502-.067-.74-.122 1.285 1.035 2.873 1.73 4.635 1.92 5.744.625 9.4-3.79 9.848-7.92.017-.134.03-.27.037-.404.654-.372 1.248-.862 1.732-1.444-.588.19-1.207.29-1.848.3.69-.32 1.252-.875 1.562-1.58v-.006z"/></svg>