<?xml version="1.0" encoding="utf-8"?>
<!-- Generator: Adobe Illustrator 17.1.0, SVG Export Plug-In . SVG Version: 6.00 Build 0)  -->
<!DOCTYPE svg PUBLIC "-//W3C//DTD SVG 1.1//EN" "http://www.w3.org/Graphics/SVG/1.1/DTD/svg11.dtd">
<svg version="1.1" id="Layer_1" xmlns="http://www.w3.org/2000/svg" xmlns:xlink="http://www.w3.org/1999/xlink" x="0px" y="0px"
	 viewBox="0 0 54 54" enable-background="new 0 0 54 54" xml:space="preserve">
<rect fill="#E72F2F" width="54" height="54"/>
<path fill="#FFFFFF" d="M22.042,40.517c-3.567,0-6.142-2.256-6.142-4.97c0-2.657,3.195-4.87,6.762-4.831
	c0.831,0.008,1.608,0.143,2.311,0.37c1.935,1.347,3.324,2.107,3.716,3.641c0.074,0.312,0.115,0.631,0.115,0.958
	C28.803,38.398,27.056,40.517,22.042,40.517 M22.979,24.613c-2.392-0.073-4.669-2.679-5.081-5.822
	c-0.413-3.143,1.193-5.55,3.585-5.48c2.392,0.073,4.669,2.594,5.082,5.737C26.977,22.192,25.373,24.685,22.979,24.613
	 M27.942,29.269c-0.84-0.596-2.445-2.041-2.445-2.89c0-0.997,0.284-1.487,1.783-2.66c1.536-1.2,2.624-2.889,2.624-4.853
	c0-2.337-1.041-4.614-2.994-5.367h2.945l2.079-1.501h-9.292c-4.163,0-8.084,3.155-8.084,6.81c0,3.737,2.84,6.753,7.078,6.753
	c0.295,0,0.58-0.007,0.861-0.026c-0.275,0.526-0.473,1.12-0.473,1.733c0,1.039,0.559,1.883,1.265,2.57
	c-0.534,0-1.05,0.016-1.61,0.016c-5.159,0-9.131,3.286-9.131,6.694c0,3.355,4.353,5.456,9.512,5.456
	c5.882,0,9.132-3.339,9.132-6.694C31.192,32.616,30.398,31.004,27.942,29.269 M41.461,24.887h-3.618v-3.618h-2.911v3.618h-3.618
	v2.911h3.618v3.618h2.911v-3.618h3.618V24.887L41.461,24.887z"/>
</svg>
