<?xml version="1.0" encoding="utf-8"?>
<!-- Generator: Adobe Illustrator 17.1.0, SVG Export Plug-In . SVG Version: 6.00 Build 0)  -->
<!DOCTYPE svg PUBLIC "-//W3C//DTD SVG 1.1//EN" "http://www.w3.org/Graphics/SVG/1.1/DTD/svg11.dtd">
<svg version="1.1" id="Layer_1" xmlns="http://www.w3.org/2000/svg" xmlns:xlink="http://www.w3.org/1999/xlink" x="0px" y="0px"
	 viewBox="0 0 54 54" enable-background="new 0 0 54 54" xml:space="preserve">
<rect x="0" y="0" fill="#547FA4" width="54" height="54"/>
<path fill="#FFFFFF" d="M38.321,12.148H15.679c-1.95,0-3.532,1.576-3.532,3.523v22.657c0,1.947,1.581,3.523,3.532,3.523h22.642
	c1.95,0,3.532-1.576,3.532-3.523V15.672C41.853,13.725,40.271,12.148,38.321,12.148L38.321,12.148z M32.782,16.362
	c0-0.457,0.373-0.829,0.831-0.829h4.017c0.459,0,0.83,0.371,0.83,0.829v4.007c0,0.457-0.371,0.829-0.83,0.829h-4.017
	c-0.459,0-0.831-0.371-0.831-0.829V16.362L32.782,16.362z M27.035,21.335c3.155,0,5.712,2.552,5.712,5.699
	c0,3.148-2.557,5.699-5.712,5.699c-3.154,0-5.712-2.551-5.712-5.699C21.322,23.887,23.88,21.335,27.035,21.335L27.035,21.335z
	 M38.529,37.569c0,0.457-0.371,0.829-0.83,0.829H16.372c-0.459,0-0.831-0.371-0.831-0.829V24.652h2.779
	c-0.209,0.76-0.321,1.559-0.321,2.383c0,4.971,4.054,9.015,9.036,9.015c4.983,0,9.036-4.044,9.036-9.015
	c0-0.824-0.112-1.623-0.321-2.383h2.779V37.569L38.529,37.569z"/>
</svg>
