<?xml version="1.0" encoding="utf-8"?>
<!-- Generator: Adobe Illustrator 17.0.0, SVG Export Plug-In . SVG Version: 6.00 Build 0)  -->
<!DOCTYPE svg PUBLIC "-//W3C//DTD SVG 1.1//EN" "http://www.w3.org/Graphics/SVG/1.1/DTD/svg11.dtd">
<svg version="1.1" id="Layer_1" xmlns="http://www.w3.org/2000/svg" xmlns:xlink="http://www.w3.org/1999/xlink" x="0px" y="0px"
	 width="612px" height="612px" viewBox="0 0 612 612" enable-background="new 0 0 612 612" xml:space="preserve">
<rect fill="#415562" width="612" height="612"/>
<path fill="#FFFFFF" d="M423.188,274.75H337.25v-85.938c0-4.312-3.5-7.812-7.812-7.812h-46.875c-4.312,0-7.812,3.5-7.812,7.812
	v85.938h-85.937c-4.312,0-7.812,3.5-7.812,7.812v46.875c0,4.312,3.5,7.812,7.812,7.812h85.937v85.938c0,4.312,3.5,7.812,7.812,7.812
	h46.875c4.312,0,7.812-3.5,7.812-7.812V337.25h85.938c4.312,0,7.812-3.5,7.812-7.812v-46.875
	C431,278.25,427.5,274.75,423.188,274.75z"/>
</svg>
