<?xml version="1.0" encoding="utf-8"?>
<!-- Generator: Adobe Illustrator 16.2.1, SVG Export Plug-In . SVG Version: 6.00 Build 0)  -->
<!DOCTYPE svg PUBLIC "-//W3C//DTD SVG 1.1//EN" "http://www.w3.org/Graphics/SVG/1.1/DTD/svg11.dtd">
<svg version="1.1" id="Icon" xmlns="http://www.w3.org/2000/svg" xmlns:xlink="http://www.w3.org/1999/xlink" x="0px" y="0px"
	 width="655.727px" height="656.081px" viewBox="184.137 975.734 655.727 656.081"
	 enable-background="new 184.137 975.734 655.727 656.081" xml:space="preserve">
<circle fill="#FFFFFF" cx="512" cy="1303.775" r="314.725"/>
<g id="krecRE_2_">
	<g>
		<g>
			<path fill="#CD2D20" d="M383.47,1589.25c-149.351-60.502-225.163-244.217-165.725-397.887
				c61.996-160.219,240.39-241.822,400.997-183.469c163.269,59.334,246.551,234.393,190.266,399.913
				c-52.458,154.344-230.176,245.997-379.548,197.817c16.436-49.798,32.85-99.574,49.02-148.532
				c47.996,43.739,111.649,45.233,167.362,2.539c68.873-52.786,99.491-175.366,62.712-254.206
				c-29.616-63.469-81.439-99.205-149.433-108.088c-89.729-11.728-169.02,10.91-224.609,87.151
				c-40.014,54.894-48.365,115.743-20.344,179.314c8.902,20.201,24.007,35.245,43.861,45.274
				c11.625,5.895,18.892,3.254,23.005-9.824c5.506-17.583,5.22-31.909-6.1-49.164c-23.517-35.858-16.967-75.176-1.371-112.447
				c36.903-88.174,163.821-119.305,234.842-58.373c23.354,20.037,35.02,46.195,37.005,75.954
				c2.989,45.07-3.991,88.728-25.706,129.068c-12.895,23.946-30.6,42.694-58.169,49.388c-41.896,10.131-73.007-20.202-62.835-61.976
				c6.836-28.061,15.555-55.651,23.026-83.548c1.923-7.163,2.947-14.737,3.254-22.166c0.921-21.429-9.129-39.543-25.175-46.543
				c-17.275-7.532-39.891-2.599-54.423,13.263c-26.526,28.981-27.836,63.102-20.078,99.533c2.558,11.912,2.906,25.298,0.348,37.168
				c-11.912,55.467-25.789,110.483-37.64,165.971C384.33,1552.367,384.944,1570.276,383.47,1589.25z"/>
		</g>
	</g>
</g>
</svg>
