<?xml version="1.0" encoding="utf-8"?>
<!-- Generator: Adobe Illustrator 17.1.0, SVG Export Plug-In . SVG Version: 6.00 Build 0)  -->
<!DOCTYPE svg PUBLIC "-//W3C//DTD SVG 1.1//EN" "http://www.w3.org/Graphics/SVG/1.1/DTD/svg11.dtd">
<svg version="1.1" id="Layer_1" xmlns="http://www.w3.org/2000/svg" xmlns:xlink="http://www.w3.org/1999/xlink" x="0px" y="0px"
	 viewBox="0 0 54 54" enable-background="new 0 0 54 54" xml:space="preserve">
<rect y="0" fill="#32516E" width="54" height="54"/>
<path fill="#FFFFFF" d="M28.127,11.997v7.584h7.118v4.709h-7.118v7.694c0,1.741,0.092,2.857,0.276,3.35
	c0.183,0.496,0.525,0.889,1.031,1.185c0.661,0.398,1.419,0.595,2.275,0.595c1.519,0,3.028-0.494,4.532-1.482v4.736
	c-1.284,0.602-2.444,1.025-3.481,1.268c-1.041,0.246-2.164,0.367-3.372,0.367c-1.372,0-2.586-0.174-3.638-0.518
	c-1.052-0.35-1.954-0.841-2.696-1.483c-0.744-0.64-1.262-1.325-1.549-2.046c-0.288-0.723-0.43-1.77-0.43-3.141V24.29h-3.318v-4.246
	c1.181-0.383,2.189-0.933,3.03-1.646c0.838-0.715,1.516-1.573,2.022-2.577c0.508-1.001,0.86-2.278,1.051-3.824H28.127L28.127,11.997
	z"/>
</svg>
