<?xml version="1.0" encoding="utf-8"?>
<!-- Generator: Adobe Illustrator 16.2.1, SVG Export Plug-In . SVG Version: 6.00 Build 0)  -->
<!DOCTYPE svg PUBLIC "-//W3C//DTD SVG 1.1//EN" "http://www.w3.org/Graphics/SVG/1.1/DTD/svg11.dtd">
<svg version="1.1" id="Layer_1" xmlns="http://www.w3.org/2000/svg" xmlns:xlink="http://www.w3.org/1999/xlink" x="0px" y="0px"
	 width="569.875px" height="463.17px" viewBox="227.062 1018.387 569.875 463.17"
	 enable-background="new 227.062 1018.387 569.875 463.17" xml:space="preserve">
<g>
	<path fill="#2BACE2" d="M796.938,1073.246c-20.954,9.311-43.501,15.588-67.147,18.413c24.158-14.469,42.724-37.395,51.408-64.683
		c-22.604,13.407-47.578,23.097-74.259,28.331c-21.296-22.718-51.712-36.921-85.334-36.921c-64.53,0-116.888,52.375-116.888,116.926
		c0,9.196,1.006,18.071,3.016,26.623c-97.166-4.911-183.258-51.389-240.981-122.216c-10.05,17.352-15.834,37.433-15.834,58.861
		c0,40.523,20.632,76.345,52.015,97.317c-19.152-0.588-37.205-5.878-53.001-14.602v1.441c0,56.661,40.296,103.937,93.829,114.65
		c-9.823,2.749-20.158,4.115-30.815,4.115c-7.547,0-14.886-0.702-21.997-2.067c14.848,46.402,58.027,80.232,109.208,81.161
		c-40.012,31.346-90.435,50.024-145.199,50.024c-9.443,0-18.773-0.53-27.895-1.593c51.75,33.147,113.189,52.527,179.219,52.527
		c215.078,0,332.648-178.157,332.648-332.724c0-5.063-0.113-10.127-0.322-15.133
		C761.458,1117.278,781.312,1096.685,796.938,1073.246"/>
</g>
</svg>
