<?xml version="1.0" encoding="utf-8"?>
<!-- Generator: Adobe Illustrator 17.1.0, SVG Export Plug-In . SVG Version: 6.00 Build 0)  -->
<!DOCTYPE svg PUBLIC "-//W3C//DTD SVG 1.1//EN" "http://www.w3.org/Graphics/SVG/1.1/DTD/svg11.dtd">
<svg version="1.1" id="Layer_1" xmlns="http://www.w3.org/2000/svg" xmlns:xlink="http://www.w3.org/1999/xlink" x="0px" y="0px"
	 viewBox="0 0 54 54" enable-background="new 0 0 54 54" xml:space="preserve">
<rect x="0" y="0.002" fill="#03B28A" width="54" height="54"/>
<path fill="#FFFFFF" d="M39.809,26.919c-0.752,0.173-1.481,0.25-2.137,0.25c-3.687,0-6.526-2.575-6.526-7.052
	c0-2.195,0.849-3.336,2.048-3.336c1.142,0,1.903,1.024,1.903,3.102c0,1.181-0.315,2.476-0.549,3.243c0,0,1.136,1.981,4.243,1.373
	c0.659-1.464,1.018-3.362,1.018-5.026c0-4.478-2.282-7.081-6.467-7.081c-4.301,0-6.818,3.306-6.818,7.666
	c0,4.32,2.02,8.027,5.349,9.717c-1.4,2.801-3.182,5.268-5.04,7.127c-3.37-4.075-6.418-9.512-7.669-20.121h-4.973
	c2.297,17.67,9.145,23.295,10.956,24.376c1.025,0.614,1.906,0.585,2.842,0.059c1.47-0.836,5.884-5.249,8.33-10.419
	c1.027-0.002,2.262-0.121,3.49-0.399V26.919L39.809,26.919z"/>
</svg>
