<?xml version="1.0" encoding="utf-8"?>
<!-- Generator: Adobe Illustrator 17.1.0, SVG Export Plug-In . SVG Version: 6.00 Build 0)  -->
<!DOCTYPE svg PUBLIC "-//W3C//DTD SVG 1.1//EN" "http://www.w3.org/Graphics/SVG/1.1/DTD/svg11.dtd">
<svg version="1.1" id="Layer_1" xmlns="http://www.w3.org/2000/svg" xmlns:xlink="http://www.w3.org/1999/xlink" x="0px" y="0px"
	 viewBox="0 0 54 54" enable-background="new 0 0 54 54" xml:space="preserve">
<rect x="0" y="0.002" fill="#E72F2F" width="54" height="54"/>
<path fill="#FFFFFF" d="M42.312,14.669c-1.141-0.497-2.921-0.518-4.544-0.557c-4.909-0.118-10.677-0.309-15.213-0.093
	c-2.107,0.1-3.948,0.005-5.936,0.093c-1.906,0.084-4.033-0.007-5.195,0.649c-1.421,0.803-2.176,3.174-2.504,5.102
	c-0.68,4-0.622,10.652,0.093,14.377c0.43,2.242,1.038,4.232,2.69,5.009c0.76,0.357,2.312,0.369,3.711,0.463
	c1.311,0.09,2.724,0.143,3.803,0.186c5.754,0.229,10.199,0.263,15.862,0c2.419-0.112,5.698,0.1,7.328-0.65
	c1.683-0.773,2.312-3.012,2.69-5.009c0.413-2.184,0.465-4.637,0.465-7.328C45.56,21.798,45.309,15.97,42.312,14.669L42.312,14.669z
	 M23.297,33.684c0-4.515,0-9.028,0-13.542c3.63,2.152,7.052,4.511,10.575,6.771C30.46,29.221,26.712,31.688,23.297,33.684
	L23.297,33.684z"/>
</svg>
