<?xml version="1.0" encoding="utf-8"?>
<!-- Generator: Adobe Illustrator 17.1.0, SVG Export Plug-In . SVG Version: 6.00 Build 0)  -->
<!DOCTYPE svg PUBLIC "-//W3C//DTD SVG 1.1//EN" "http://www.w3.org/Graphics/SVG/1.1/DTD/svg11.dtd">
<svg version="1.1" id="Layer_1" xmlns="http://www.w3.org/2000/svg" xmlns:xlink="http://www.w3.org/1999/xlink" x="0px" y="0px"
	 viewBox="0 0 39.6 28.8" enable-background="new 0 0 39.6 28.8" xml:space="preserve">
<g>
	<path fill="#989898" d="M19.799,22.52c-3.7,0-6.71-3.01-6.71-6.71c0-3.699,3.01-6.708,6.71-6.708c3.699,0,6.71,3.009,6.71,6.708
		C26.509,19.51,23.499,22.52,19.799,22.52z M19.799,11.231c-2.526,0-4.581,2.054-4.581,4.579c0,2.527,2.055,4.583,4.581,4.583
		s4.582-2.056,4.582-4.583C24.381,13.285,22.325,11.231,19.799,11.231z"/>
	<rect x="1.8" y="0.635" fill="none" width="36" height="27.531"/>
	<path fill="#989898" d="M34.618,28.165H4.98c-1.754,0-3.181-1.427-3.181-3.18V8.049c0-1.754,1.427-3.181,3.181-3.181h5.809
		l3.624-3.583c0.55-0.423,1.214-0.651,1.917-0.651h7.056c0.842,0,1.636,0.327,2.236,0.919l3.307,3.315h5.688
		c1.755,0,3.181,1.427,3.181,3.181v16.936C37.799,26.738,36.373,28.165,34.618,28.165z M4.98,6.997c-0.58,0-1.052,0.472-1.052,1.052
		v16.936c0,0.58,0.472,1.053,1.052,1.053h29.638c0.58,0,1.053-0.473,1.053-1.053V8.049c0-0.58-0.473-1.052-1.053-1.052h-6.571
		l-3.912-3.922c-0.205-0.204-0.464-0.312-0.747-0.312h-7.056c-0.29,0-0.563,0.122-0.768,0.344l-3.891,3.89H4.98z"/>
</g>
</svg>
