<?xml version="1.0" encoding="utf-8"?>
<!-- Generator: Adobe Illustrator 16.2.1, SVG Export Plug-In . SVG Version: 6.00 Build 0)  -->
<!DOCTYPE svg PUBLIC "-//W3C//DTD SVG 1.1//EN" "http://www.w3.org/Graphics/SVG/1.1/DTD/svg11.dtd">
<svg version="1.1" id="Layer_1" xmlns="http://www.w3.org/2000/svg" xmlns:xlink="http://www.w3.org/1999/xlink" x="0px" y="0px"
	 width="400px" height="225px" viewBox="0 0 400 225" enable-background="new 0 0 400 225" xml:space="preserve">
<polygon fill-rule="evenodd" clip-rule="evenodd" fill="#FFFFFF" points="133.016,173.982 209.188,208.479 285.608,176.118 
	212.95,142.529 "/>
<g>
	<path fill-rule="evenodd" clip-rule="evenodd" fill="#FFFFFF" d="M188.76,145.892c-2.569-10.35-3.272-24.405-7.099-34.267
		c-1.827-2.445-11.285-3.846-15.508-5.47c-1.409-0.408-2.422,5.788-3.974,8.616c-3.056,5.565-5.418,11.513-8.067,17.302
		c-1.033-0.443-2.066-0.889-3.1-1.332c1.867-5.064,3.202-10.41,5.718-15.128c3.301-9.458,2.399-10.376-0.124-12.646
		c-1.39-0.284-8.855-2.822-10.123-3.705c0.419-1.016,0.838-3.405,1.257-4.418c17.333,6.251,34.667,12.504,51.999,18.757
		c-0.199,0.933-0.88,3.652-1.079,4.586c-3.617-0.33-6.752-2.447-12.138-2.938c2.563,10.513,4.902,20.098,7.402,30.352
		c-1.767,0-3.627,0-5.498-0.006C188.416,145.588,188.76,145.892,188.76,145.892z"/>
	<g>
		<path fill="none" d="M188.305,145.769c0.152,0.041,0.304,0.082,0.456,0.123c-0.024-0.097-0.046-0.195-0.07-0.292
			c-0.086,0-0.17,0-0.256,0C188.39,145.652,188.349,145.714,188.305,145.769z"/>
		<path fill="none" d="M143.547,166.5c15.239-5.727,27.725-10.233,40.017-15.221c1.993-0.808,3.191-3.576,4.741-5.511
			c-10.633-2.878-21.278-5.761-32.781-8.874C151.834,146.016,148.186,155.035,143.547,166.5z"/>
		<path fill="none" d="M199.141,116.396c0.199-0.932,0.398-1.864,0.597-2.797c-17.333-6.253-34.666-12.506-51.999-18.757
			c-0.419,1.013-0.838,2.028-1.257,3.044c1.268,0.883,2.429,2.28,3.819,2.564c9.635,1.977,10.761,7.033,6.428,15.161
			c-2.516,4.718-3.851,10.063-5.718,15.128c1.034,0.443,2.067,0.889,3.1,1.332c2.649-5.789,5.012-11.736,8.067-17.302
			c1.552-2.829,5.052-7.384,6.462-6.977c4.445,1.286,10.598,3.665,11.976,7.218c3.791,9.769,5.543,20.329,8.074,30.588
			c1.776,0,3.548,0,5.233,0c-2.5-10.254-4.839-19.839-7.402-30.352C191.907,115.738,195.524,116.068,199.141,116.396z"/>
		<path fill="none" d="M245.244,138.247c-15.341,5.589-30.723,11.067-46.585,16.771c4.32,15.302,8.393,29.722,12.404,43.933
			c1.709-0.106,2.423,0.021,2.991-0.211c13.373-5.46,26.73-10.954,40.088-16.456c22.983-9.472,22.981-9.477,15.211-32.795
			C263.389,131.596,263.402,131.635,245.244,138.247z"/>
		<path d="M285.26,167.791c-3.621-10.115-7.331-20.237-10.091-30.599c-0.923-3.456-0.018-8.185,1.75-11.4
			c3.531-6.425,3.022-11.163-3.976-13.669c-8.552-3.062-10.088-9.58-10.485-18.002c2.456,0,4.521,0.383,6.352-0.112
			c1.703-0.459,2.716-7.532,1.096-8.094c-16.486-5.721-33.062-11.201-49.75-16.307c-1.729-0.53-3.874,7.073-1.957,8.27
			c3.035,1.896,6.578,2.986,10.704,4.763c-2.024,4.506-3.708,8.254-6.817,15.175c-3.84-5.967-7.175-9.194-8.173-13.028
			c-4.891-18.82-9.375-37.757-13.559-56.748c-2.001-9.08-6.783-11.4-15.335-8.798c-19.252,5.858-38.579,11.473-57.913,17.058
			c-11.662,3.369-13.132,5.328-10.437,17.073c4.203,18.315,8.794,36.544,13.032,54.852c2.415,10.429,3.109,21.789,17.443,24.397
			c-4.999,12.264-9.649,23.021-13.693,34.001c-3.58,6.882,1.341,12.092,8.618,9.257c16.328-5.897,32.543-12.107,49.54-18.488
			c4.124,14.985,8.202,28.779,11.65,42.728c2.017,8.157,5.604,10.208,13.584,6.75c20.646-8.946,41.479-17.476,62.399-25.765
			C286.125,178.375,287.627,174.398,285.26,167.791z M241.199,86.523c10.472-0.021,14.824,18.478,14.143,19.631
			c-5.737-3.71-16.974-3.941-22.71-7.651C234.904,95.524,238.918,86.53,241.199,86.523z M188.69,145.6
			c0.024,0.097,0.046,0.195,0.07,0.292c-0.152-0.041-0.304-0.082-0.456-0.123c-1.549,1.935-2.748,4.703-4.741,5.511
			c-12.292,4.987-24.777,9.494-40.017,15.221c4.639-11.465,8.287-20.484,11.977-29.605c11.502,3.113,22.147,5.996,32.781,8.874
			c0.044-0.055,0.085-0.116,0.129-0.169C188.52,145.6,188.604,145.6,188.69,145.6c-2.53-10.259-4.283-20.819-8.074-30.588
			c-1.378-3.553-7.53-5.932-11.976-7.218c-1.41-0.408-4.91,4.148-6.462,6.977c-3.056,5.565-5.418,11.513-8.067,17.302
			c-1.033-0.443-2.066-0.889-3.1-1.332c1.867-5.064,3.202-10.41,5.718-15.128c4.333-8.128,3.207-13.184-6.428-15.161
			c-1.39-0.284-2.551-1.682-3.819-2.564c0.419-1.016,0.838-2.031,1.257-3.044c17.333,6.251,34.667,12.504,51.999,18.757
			c-0.199,0.933-0.398,1.865-0.597,2.797c-3.617-0.328-7.234-0.658-12.62-1.148c2.563,10.513,4.902,20.098,7.402,30.352
			C192.238,145.6,190.466,145.6,188.69,145.6z M254.143,182.284c-13.357,5.502-26.715,10.996-40.088,16.456
			c-0.568,0.232-1.282,0.104-2.991,0.211c-4.012-14.211-8.084-28.631-12.404-43.933c15.862-5.704,31.244-11.183,46.585-16.771
			c18.158-6.612,18.145-6.651,24.109,11.242C277.124,172.808,277.126,172.812,254.143,182.284z"/>
	</g>
</g>
</svg>
