<?xml version="1.0" encoding="utf-8"?>
<!-- Generator: Adobe Illustrator 16.2.1, SVG Export Plug-In . SVG Version: 6.00 Build 0)  -->
<!DOCTYPE svg PUBLIC "-//W3C//DTD SVG 1.1//EN" "http://www.w3.org/Graphics/SVG/1.1/DTD/svg11.dtd">
<svg version="1.1" id="Layer_1" xmlns="http://www.w3.org/2000/svg" xmlns:xlink="http://www.w3.org/1999/xlink" x="0px" y="0px"
	 width="400px" height="225px" viewBox="0 0 400 225" enable-background="new 0 0 400 225" xml:space="preserve">
<g>
	<path d="M298.729,63.103c0,59.391-91.969,58.526-91.969-0.288c24.508-6.055,26.525-46.706-5.155-48.071
		c-31.458,0-32.036,42.593-5.224,48.359c0.198,64.479-93.411,55.066-92.835-0.575c12.974,0,30.272-36.904-8.36-47.859
		c0,22.487,0,172.981,0,193.165h210.462c0,0,0-172.985,0-193.165C275.379,14.668,277.108,63.103,298.729,63.103z M219.301,166.976
		l2.366,13.857l-10.445-8.26c-3.747,2.048-6.077,2.248-10.807,2.248c-13.533,0-24.505-9.68-24.505-21.623
		s10.972-21.623,24.505-21.623c13.534,0,24.508,9.68,24.508,21.623C224.923,158.435,222.812,163.235,219.301,166.976z"/>
</g>
</svg>
