<?xml version="1.0" encoding="utf-8"?>
<!-- Generator: Adobe Illustrator 16.2.1, SVG Export Plug-In . SVG Version: 6.00 Build 0)  -->
<!DOCTYPE svg PUBLIC "-//W3C//DTD SVG 1.1//EN" "http://www.w3.org/Graphics/SVG/1.1/DTD/svg11.dtd">
<svg version="1.1" id="Layer_1" xmlns="http://www.w3.org/2000/svg" xmlns:xlink="http://www.w3.org/1999/xlink" x="0px" y="0px"
	 width="400px" height="225px" viewBox="-81.526 -25.536 400 225" enable-background="new -81.526 -25.536 400 225"
	 xml:space="preserve">
<g>
	<path d="M77.652,116.726c-8.985,6.137-17.047,11.636-25.101,17.148c-3.926,2.688-7.88,5.339-11.735,8.126
		c-2.732,1.976-3.511,1.214-3.591-1.933c-0.438-17.013,2.387-33.303,10.351-48.516c1.46-2.792,3.019-5.552,3.717-9.115
		c-10.638,1.378-20.951,4.188-31.069,7.519c-3.924,1.293-7.893,1.591-11.814,2.47c-2.972,0.665-2.836-0.838-2.062-2.954
		c5.51-15.095,13.052-28.978,24.101-40.798c1.832-1.96,4.011-3.416,6.357-4.665c1.531-0.814,2.602-2.152,2.185-3.835
		c-0.458-1.843-2.329-1.096-3.619-1.231c-13.488-1.425-26.982-2.803-40.47-4.215c-0.628-0.066-1.237-0.331-2.275-0.62
		C3.741,19.442,16.688,7.974,33.381,1.098c16.86-6.947,34.387-8.263,51.936-4.292c13.95,3.156,27.679,7.551,41.008,12.865
		c16.663,6.64,33.168,13.676,49.73,20.565c3.356,1.396,6.612,3.054,10.021,4.302c2.47,0.904,2.503,2.09,1.12,3.91
		c-12.327,16.23-23.664,33.172-35.804,49.548c-17.173,23.165-33.518,46.944-50.228,70.454c-4.474,6.294-9.015,12.537-13.475,18.843
		c-1.938,2.739-2.843,2.933-4.194-0.659c-6.284-16.719-9.846-33.691-6.235-51.58c0.244-1.209,0.308-2.458,0.38-3.693
		C77.701,120.319,77.652,119.272,77.652,116.726z M82.083,98.203c18.082-12.285,36.165-24.572,54.248-36.859
		c-0.21-0.41-0.42-0.821-0.63-1.23c-1.538,0.239-3.109,0.344-4.604,0.738c-15.144,3.971-30.191,8.359-45.441,11.869
		c-10.69,2.461-17.752,8.758-22.868,17.93c-6.73,8.241-9.374,18.064-12.054,29.636C62.082,112.292,72.083,105.248,82.083,98.203z
		 M47.558,51.793c-9.255,5.396-15.184,13.794-21.479,23.397c13.116-3.359,25.382-5.608,37.048-10.133
		c21.795-3.819,42.65-11.2,64.085-16.614c-18.649-2.307-37.27-3.43-55.714-5.876C61.267,41.209,54.387,45.762,47.558,51.793z
		 M110.9,123.413c12.393-18.324,26.917-35.174,38.501-54.453c-2.15-0.358-2.959,0.655-3.972,1.348
		c-15.063,10.321-30.278,20.429-45.177,30.981c-6.974,4.94-8.631,12.853-9.499,20.859c-3.526,9.856-2.696,19.841-1.25,31.148
		c2.742-3.799,4.779-6.601,6.795-9.418C101.17,137.063,106.033,130.236,110.9,123.413z M55.125,29.142
		c35.176,2.143,70.187,6.325,105.388,8.917c-1.913-1.604-3.895-2.68-5.975-3.517c-21.521-8.65-42.823-17.72-65.348-23.828
		C74.428,6.71,60.239,6.048,45.672,10.142c-3.887,0.57-7.481,2.094-10.867,3.919c-5.021,2.705-10.896,3.993-14.751,8.725
		c-0.646,0.793-1.859,1.273-1.208,2.489c0.238,0.446,1.143,0.728,1.759,0.754C32.161,26.529,43.666,27.579,55.125,29.142z"/>
	<path d="M202.058,112.86c-2.277-6.135-1.297-12.625-6.061-17.123c-1.157-1.094,0.746-1.527,1.381-2.208
		c8.123-8.701,17.954-15.462,26.625-23.533c0.817-0.762,1.459-1.648,2.622-1.149c1.252,0.539,0.983,1.886,0.802,2.788
		c-1.305,6.503,2.023,10.454,6.662,14.482c7.667,6.659,10.151,15.786,10.219,25.727c0.082,12.574,0.149,12.663-12.424,13.262
		c-3.088,0.147-4.697,1.003-4.362,4.316c0.673,6.679-1.955,13.804,3.225,19.884c1.679,1.973-0.487,3.805-1.651,5.567
		c-5.964,9.041-5.95,9.119-15.548,5.165c-6.79-2.798-13.424-5.993-20.297-8.559c-3.256-1.216-3.319-1.904-1.316-4.653
		c10.988-15.073,21.732-30.329,32.532-45.541c0.669-0.943,2.195-1.686,1.516-3.104c-0.659-1.37-2.171-0.647-3.313-0.777
		c-2.418-0.274-4.834,0.377-7.299-0.631c-2.441-0.998-3.123,1.054-4.019,2.964C209.136,104.475,205.93,108.551,202.058,112.86z"/>
	<path d="M170.463,132.688c-11.47-0.104-20.576-9.057-20.149-20.613c0.388-10.49,8.161-20.164,20.771-20.043
		c10.997,0.105,20.338,9.865,20.4,20.818C191.547,123.389,179.917,133.933,170.463,132.688z M178.836,112.88
		c0.161-4.314-3.051-7.942-7.274-8.222c-4.578-0.302-8.466,2.958-8.684,7.284c-0.192,3.807,3.165,8.519,6.161,8.643
		C174.143,120.798,178.677,117.234,178.836,112.88z"/>
	<path d="M201.83,41.248c0.357,0.158,0.992,0.445,1.631,0.72c5.97,2.571,11.915,5.208,17.926,7.684
		c3.813,1.571,4.04,3.575,1.083,6.199c-10.745,9.534-21.524,19.029-32.228,28.608c-1.671,1.493-3.444,1.928-5.322,1.054
		c-3.235-1.509-6.452-2.784-10.129-2.388c-1.125,0.122-2.147-0.385-2.479-1.555c-0.413-1.464,1.416-1.451,1.688-2.094
		c2.018-4.782,4.819-9.025,7.931-13.152c5.599-7.425,10.983-15.007,16.442-22.536C199.2,42.65,199.802,41.283,201.83,41.248z"/>
	<path d="M171.123,161.065c0,5.129,0.036,10.263-0.034,15.391c-0.013,0.946,0.438,2.335-0.929,2.712
		c-1.157,0.315-1.896-0.688-2.591-1.482c-8.229-9.402-14.529-19.878-17.701-32.062c-0.753-2.889-2.261-5.599-2.116-8.712
		c0.048-1.022-0.459-2.274,0.611-2.916c1.295-0.776,1.758,0.625,2.47,1.293c5.018,4.705,10.58,8.128,17.825,7.711
		c2.317-0.132,2.389,1.493,2.379,3.207c-0.031,4.955-0.014,9.907-0.014,14.86C171.06,161.065,171.09,161.065,171.123,161.065z"/>
	<path fill="#F4F0DC" d="M45.672,10.142c2.863,6.476,8.317,11.665,9.453,19c-11.459-1.563-22.964-2.612-34.52-3.115
		c-0.616-0.025-1.521-0.307-1.76-0.754c-0.651-1.216,0.561-1.696,1.208-2.489c3.855-4.732,9.731-6.02,14.751-8.725
		C38.191,12.235,41.786,10.712,45.672,10.142z"/>
	<path fill="#F4F0DC" d="M62.787,90.65c6.433,2.518,12.865,5.036,19.297,7.556c-10,7.042-20.001,14.087-31.35,22.08
		C53.412,108.715,56.057,98.892,62.787,90.65z"/>
	<path fill="#F4F0DC" d="M47.558,51.793c4.602,5.111,9.947,9.351,15.568,13.266c-11.666,4.524-23.931,6.772-37.047,10.132
		C32.375,65.587,38.302,57.189,47.558,51.793z"/>
	<path fill="#F4F0DC" d="M90.753,122.149c4.836,1.057,9.736,0.204,14.595,0.491c1.863,0.113,3.85-0.536,5.552,0.774
		c-4.867,6.821-9.729,13.646-14.603,20.465c-2.014,2.817-4.053,5.619-6.794,9.418C88.058,141.99,87.227,132.005,90.753,122.149z"/>
</g>
</svg>
