<?xml version="1.0" encoding="utf-8"?>
<!-- Generator: Adobe Illustrator 16.2.1, SVG Export Plug-In . SVG Version: 6.00 Build 0)  -->
<!DOCTYPE svg PUBLIC "-//W3C//DTD SVG 1.1//EN" "http://www.w3.org/Graphics/SVG/1.1/DTD/svg11.dtd">
<svg version="1.1" id="Layer_1" xmlns="http://www.w3.org/2000/svg" xmlns:xlink="http://www.w3.org/1999/xlink" x="0px" y="0px"
	 width="31.5px" height="31.167px" viewBox="0 0 31.5 31.167" enable-background="new 0 0 31.5 31.167" xml:space="preserve">
<g>
	<g>
		<polygon fill="#FFFFFF" points="28.099,28.32 3.099,28.32 3.099,27.32 27.099,27.32 27.099,3.07 28.099,3.07 		"/>
	</g>
	<g>
		<g>
			<polygon fill="#FFFFFF" points="30.113,30.333 5.113,30.333 5.113,29.333 29.113,29.333 29.113,5.083 30.113,5.083 			"/>
		</g>
	</g>
	<g>
		<path fill="#FFFFFF" d="M1.599,1.696v24h24v-24H1.599z M12.917,23.034H5.079h-1v-1v-7.839h1v7.313l6.776-6.775l0.707,0.707
			l-6.595,6.594h6.95V23.034z M22.792,5.22v7.839h-1v-6.85l-6.349,6.35l-0.707-0.707l6.631-6.632h-7.414v-1h7.839h1V5.22z"/>
	</g>
</g>
</svg>
