<?xml version="1.0" encoding="utf-8"?>
<!-- Generator: Adobe Illustrator 16.2.1, SVG Export Plug-In . SVG Version: 6.00 Build 0)  -->
<!DOCTYPE svg PUBLIC "-//W3C//DTD SVG 1.1//EN" "http://www.w3.org/Graphics/SVG/1.1/DTD/svg11.dtd">
<svg version="1.1" id="Layer_1" xmlns="http://www.w3.org/2000/svg" xmlns:xlink="http://www.w3.org/1999/xlink" x="0px" y="0px"
	 width="400px" height="225px" viewBox="0 0 400 225" enable-background="new 0 0 400 225" xml:space="preserve">
<path fill-rule="evenodd" clip-rule="evenodd" fill="#FFFFFF" d="M213.526,121.296c0,0,57.474-20.462,71.306,40.624
	C240.334,181.5,213.252,132.242,213.526,121.296z"/>
<g>
	<path fill-rule="evenodd" clip-rule="evenodd" fill="#FFFFFF" d="M188.014,106.591c-9.279,2.359-18.453,4.485-28.249,2.435
		c-17.866-3.742-30.787-13.482-38.633-29.95c-1.831-3.842-3.163-7.836-3.834-12.066c-0.283-1.791,0.092-2.577,1.95-3.126
		c8.758-2.588,17.537-4.11,26.622-1.782c1.394,0.358,2.906,0.254,4.365,0.363c4.142,1.913,8.466,3.511,12.391,5.795
		c14.409,8.389,22.698,21.112,25.726,37.394C188.24,105.965,188.127,106.278,188.014,106.591z"/>
	<path fill-rule="evenodd" clip-rule="evenodd" fill="#FFFFFF" d="M125.702,139.091c7.497-9.968,17.133-17.058,29.212-20.156
		c8.027-2.06,16.252-3.75,24.516-0.009c2.537,1.148,5.667,0.981,8.527,1.418c0.144,0.367,0.287,0.734,0.431,1.102
		c-1.5,5.68-3.132,11.306-5.901,16.54c-7.405,13.998-19.16,22.585-34.237,26.318c-9.64,2.388-19.492,1.701-29.046-1.403
		c-2-0.649-2.335-1.822-1.921-3.972C118.678,151.68,121.901,145.279,125.702,139.091z"/>
	<path fill-rule="evenodd" clip-rule="evenodd" fill="#FFFFFF" d="M181.814,48.729c0.042-0.501,0.084-1.003,0.126-1.505
		c0.849-1.073,1.15-2.357,1.496-3.647c2.653-9.908,7.878-18.18,15.593-24.973c1.939-1.707,3.191-1.658,5.035-0.026
		c3.966,3.51,7.057,7.657,9.908,12.087c2.735,4.247,3.983,9.115,6.233,13.548c-0.114,0.188-0.092,0.359,0.066,0.513
		c0.725,7.595,1.944,15.138,0.211,22.818c-0.573,2.542-2.086,4.896-1.773,7.638c-0.177,0.16-0.216,0.349-0.117,0.566
		c-0.592,0.701-1.12,1.384-1.511,2.278c-3.523,8.066-8.46,15.085-15.594,20.408l0.042,0.004
		c-11.142-8.262-17.215-19.56-19.553-33.005C181.015,59.906,181.77,54.301,181.814,48.729z"/>
	<path fill-rule="evenodd" clip-rule="evenodd" fill="#010101" d="M220.244,161.535c1.96,9.683,0.601,18.979-3.255,27.984
		c-0.818,0.16-2.545-0.81-2.319,0.083c0.762,3.027-1.667,3.128-3.125,4.174c-3.876,2.782-4.414,4.697-2.424,8.574
		c-0.312,1.002-0.975,1.733-1.805,2.334c-3.505-1.179-6.204-5.346-10.784-2.72c-0.774,0.444-1.852-0.805-1.269-1.795
		c1.671-2.837-0.113-3.292-2.264-3.896c-3.283-0.922-4.73-3.55-3.6-6.794c0.928-2.662-0.525-3.862-2.818-5.648
		c0.163,2.132-0.304,3.424-2.216,3.274c-0.208-0.111-0.271-0.277-0.188-0.499c1.82-3.47-0.024-6.682-0.645-10.006
		c-0.886-4.743-1.869-9.488-1.701-14.363c-0.12-0.264-0.079-0.501,0.125-0.709c1.815-1.838,1.564-4.154,1.491-6.43l0.002-0.006
		c4.91-0.699,7.836-5.413,5.554-9.166c1.98-1.377,5.194-0.775,6.184-3.776c0.78-2.365,2.902-3.77,4.282-5.714
		c1.207-1.7,2.396-1.502,3.314,0.271c0.79,1.527,2.08,2.372,3.59,2.998c0.744,0.31,1.642,0.63,1.616,1.558
		c-0.112,4.26,1.269,7.452,5.731,8.693c0.789,0.221,0.828,1.043,0.606,1.678c-0.564,1.62,0.038,3.139,0.194,4.712
		c0.458,4.609,0.972,4.973,5.586,3.489c0.147,0.226,0.16,0.461,0.04,0.703C220.18,160.871,220.212,161.203,220.244,161.535z"/>
	<path fill-rule="evenodd" clip-rule="evenodd" fill="#010101" d="M282.701,76.011c0.076,0.273,0.022,0.518-0.161,0.733
		c-1.62,0.568-1.466,1.93-1.447,3.23c0,0,0.002-0.007,0.002-0.008c-1.931-0.423-1.914-1.879-1.89-3.416
		c0.012-0.75-0.528-1.205-1.303-1.198c-0.598,0.004-0.796,0.368-0.971,0.966c-1.295,4.415-1.315,9.696-7.271,11.063
		c-0.227,0.052-0.594,0.37-0.568,0.506c0.556,3.144-0.891,3.736-3.778,5.037c-3.833,1.727-6.595,5.822-9.832,8.884
		c-1.301,1.229-2.593,2.218-4.529,0.93c-0.851-0.566-2.598-0.744-2.778,0.389c-0.549,3.408-3.021,2.285-4.908,2.389
		c-1.999,0.111-3.753,0.028-5.192,2.077c-1.057,1.506-3.578,2.194-4.426-0.154c-1.002-2.774-2.424-1.897-3.953-1.161
		c-1.386,0.668-3.032,1.017-3.183-0.714c-0.381-4.404-2.487-3.256-5.024-2.09c-0.853,0.391-2.046,0.492-2.983-0.281
		c0.55-0.771,1.542-1.522,1.5-2.211c-0.2-3.3-0.752-5.806,3.119-8.429c3.433-2.325,4.98-7.481,3.062-12.349l0.089-0.075
		c2.511,1.528,5.298,1.173,5.798-1.512c0.304-1.635,1.011-3.375,0.957-5.143l-0.024,0.02c0.486,0.212,0.998,0.651,1.453,0.599
		c2.251-0.259,4.67,1.222,6.636,0.06c1.506-0.889-1.411-1.977-0.5-3.874c3.415,3.469,5.807-3.988,9.492-0.638
		c2.101-3.018,6.382-2.553,8.603-5.39c0.75-0.959,1.625-1.626,2.944-1.836c7.319-1.165,13.057,2.536,18.854,6.033
		c1.336,0.806,1.342,1.933,0.039,2.864c-0.704,0.504-2.29-1.349-2.396,0.732c-0.071,1.405,1.39,1.376,2.322,1.774
		C281.488,74.262,282.146,75.081,282.701,76.011z M264.499,64.982c-0.23-0.917-0.906-0.933-1.567-0.748
		c-0.949,0.265-1.753,0.926-1.947,1.834c-0.188,0.881,0.701,1.018,1.362,0.891C263.442,66.75,264.324,66.212,264.499,64.982z"/>
	<path fill-rule="evenodd" clip-rule="evenodd" fill="#0D0806" d="M220.107,159.836c-4.614,1.483-5.128,1.12-5.586-3.489
		c-0.156-1.573-0.759-3.092-0.194-4.712c0.222-0.635,0.183-1.457-0.606-1.678c-4.463-1.241-5.844-4.434-5.731-8.693
		c0.025-0.928-0.872-1.248-1.616-1.558c-1.51-0.626-2.8-1.471-3.59-2.998c-0.918-1.772-2.107-1.971-3.314-0.271
		c-1.379,1.944-3.502,3.349-4.282,5.714c-0.99,3.001-4.203,2.399-6.184,3.776c2.282,3.753-0.644,8.467-5.554,9.167
		c0.032-1.329,0.357-2.538,0.878-3.804c3.181-7.719,7.553-14.589,13.795-20.199c2.08-1.871,2.242-3.486-0.529-4.872
		c-3.092-1.547-6.14-3.179-9.208-4.774c-0.144-0.367-0.287-0.734-0.431-1.102c1.135-4.578,1.008-9.163,0.058-13.751
		c0.113-0.315,0.226-0.628,0.339-0.94c4.727-1.793,8.867-4.659,13.177-7.211c0,0-0.042-0.004-0.038-0.004
		c2.116,1.63,4.147,3.388,6.693,4.352c0.292,0.148,0.585,0.296,0.876,0.444c0.042,0.201,0.087,0.403,0.132,0.604l-0.264,0.297
		c-2.688,1.372-5.265,1.701-8.354,0.726c-2.714-0.856-5.596,0.221-6.476,3.429c-0.48,1.755-0.942,3.225-2.568,4.224
		c-0.946,0.58-1.639,1.501-0.75,2.656c0.601,0.78,0.977,2.459,2.219,1.833c4.366-2.198,5.715,1.494,7.852,3.722
		c1.225,1.276,6.119,1.905,6.749,0.739c1.475-2.732,4.564-3.802,6.199-6.322c0.418,5.632,0.461,5.763,5.939,4.03
		c4.502-1.423,9.164-1.333,13.751-1.934c1.96-0.256,1.476,1.009,0.924,1.966c-4.172,7.229-8.386,14.436-12.727,21.892
		c-4.401-6.047-5.913-12.867-8.161-19.798c-3.289,1.893-6.321,3.74-9.452,5.404c-2.312,1.229-2.298,2.144-0.343,3.919
		C212.425,138.509,218.181,148.117,220.107,159.836z"/>
	<path fill-rule="evenodd" clip-rule="evenodd" fill="#090505" d="M266.583,130.001c-0.69,1.007-1.595,2.148-2.312,3.398
		c-5.027,8.749-10.136,17.455-14.94,26.326c-1.369,2.532-2.595,2.548-4.981,1.666c-3.341-1.235-6.052-3.485-9.143-5.102
		c-1.53-0.801-2.548-2.271-0.968-4.803c5.815-9.317,11.17-18.925,16.651-28.449c0.808-1.403,1.505-2.354,3.37-1.51
		c4.012,1.814,7.82,3.943,11.277,6.673C266.021,128.584,266.709,128.911,266.583,130.001z"/>
	<path fill-rule="evenodd" clip-rule="evenodd" fill="#0D0806" d="M226.187,80.205c1.918,4.867,0.37,10.023-3.062,12.349
		c-3.871,2.623-3.319,5.129-3.119,8.429c0.042,0.689-0.95,1.44-1.5,2.211c0.938,0.773,2.131,0.672,2.983,0.281
		c2.537-1.166,4.644-2.314,5.024,2.09c0.15,1.731,1.797,1.382,3.183,0.714c1.529-0.736,2.951-1.613,3.953,1.161
		c0.848,2.348,3.369,1.66,4.426,0.154c1.439-2.049,3.193-1.966,5.192-2.077c1.888-0.104,4.359,1.019,4.908-2.389
		c0.181-1.133,1.928-0.955,2.778-0.389c1.937,1.288,3.229,0.299,4.529-0.93c3.237-3.062,5.999-7.157,9.832-8.884
		c2.888-1.301,4.334-1.894,3.778-5.037c-0.025-0.136,0.342-0.454,0.568-0.506c5.955-1.367,5.976-6.648,7.271-11.063
		c0.175-0.598,0.373-0.961,0.971-0.966c0.774-0.006,1.314,0.448,1.303,1.198c-0.024,1.536-0.041,2.992,1.89,3.416
		c-5.833,13.551-16.44,21.846-29.836,27.046c-1.089,0.424-2.391,0.376-3.054,1.594c-7.098,0.371-14.092,2.483-21.323,0.929
		c-2.123-0.457-4.309-1.484-6.614-0.744c-0.469-0.164-0.997-0.237-1.397-0.504c-3.872-2.594-4.435-2.372-5.069,2.062
		c-1.523,0.396-2.709,2.33-4.528,1.219c-1.155-0.705-0.161-1.864-0.179-2.817c0.334-0.268,0.668-0.536,1.003-0.804
		c-0.334-0.269-0.668-0.538-1.002-0.807c-0.056-1.002-0.111-2.005-0.166-3.007l0.264-0.297c5.055,1.923,4.843,1.866,6.328-3.712
		C217.5,92.688,220.79,85.859,226.187,80.205z"/>
	<path fill-rule="evenodd" clip-rule="evenodd" fill="#0D0806" d="M264.735,164.882c4.467-7.471,8.933-14.943,13.566-22.698
		c2.99,5.037,4.793,10.057,6.388,15.251c1.237,4.027,0.31,5.937-3.752,6.554c-1.036,0.156-2.031,0.572-3.046,0.869
		c-4.454,0.295-8.869,1.831-13.378,0.426l0.044,0.1C264.693,165.244,264.753,165.076,264.735,164.882z"/>
	<path fill-rule="evenodd" clip-rule="evenodd" fill="#010101" d="M208.929,104.133c0.055,1.002,0.11,2.005,0.166,3.007
		l-0.014,0.014c-0.331,0.198-0.874,0.335-0.952,0.606c-0.21,0.716,0.449,0.821,0.953,0.979l0.012,0.011
		c0.018,0.953-0.977,2.113,0.179,2.817c1.819,1.11,3.005-0.823,4.528-1.219c0,1.596-0.001,3.194-0.001,4.791
		c-1.635,2.521-4.725,3.59-6.199,6.322c-0.63,1.166-5.524,0.537-6.749-0.739c-2.137-2.228-3.486-5.92-7.852-3.722
		c-1.243,0.626-1.618-1.053-2.219-1.833c-0.889-1.155-0.196-2.076,0.75-2.656c1.626-0.999,2.088-2.469,2.568-4.224
		c0.879-3.208,3.762-4.286,6.476-3.429C203.664,105.833,206.241,105.505,208.929,104.133z"/>
	<path fill-rule="evenodd" clip-rule="evenodd" fill="#0D0806" d="M282.701,76.011c-0.555-0.93-1.213-1.749-2.248-2.19
		c-0.933-0.398-2.394-0.369-2.322-1.774c0.105-2.081,1.691-0.228,2.396-0.732c1.303-0.931,1.297-2.058-0.039-2.864
		c-5.797-3.497-11.534-7.197-18.854-6.033c-1.319,0.209-2.194,0.876-2.944,1.836c-2.221,2.837-6.502,2.372-8.603,5.39
		c-3.686-3.35-6.077,4.107-9.492,0.638c-0.911,1.896,2.006,2.985,0.5,3.874c-1.966,1.162-4.385-0.319-6.636-0.06
		c-0.455,0.052-0.967-0.387-1.453-0.599c4.825-4.749,10.738-7.567,17.084-9.607c1.77-0.569,3.566-1.059,5.352-1.585
		c6.943-0.907,13.889-1.068,20.841-0.112c0.123,0.046,0.243,0.104,0.37,0.138C287.28,65.109,287.639,65.919,282.701,76.011z"/>
	<path fill-rule="evenodd" clip-rule="evenodd" fill="#0D0806" d="M207.316,204.685c-6.32,6.918-6.071,7.496-12.631,0.158
		c-3.812-4.264-6.662-9.123-9.42-14.067c0.063-0.191,0.001-0.325-0.186-0.399c-0.238-1.09-0.476-2.18-0.713-3.27
		c1.912,0.149,2.378-1.143,2.216-3.274c2.293,1.786,3.746,2.986,2.818,5.648c-1.13,3.244,0.317,5.872,3.6,6.794
		c2.151,0.604,3.936,1.059,2.264,3.896c-0.583,0.99,0.495,2.239,1.269,1.795C201.112,199.339,203.812,203.506,207.316,204.685z"/>
	<path fill-rule="evenodd" clip-rule="evenodd" fill="#0D0806" d="M213.871,196.62c-1.967,1.592-2.508,4.365-4.75,5.73
		c-1.99-3.877-1.452-5.792,2.424-8.574c1.458-1.046,3.887-1.146,3.125-4.174c-0.226-0.893,1.501,0.077,2.319-0.083
		C215.95,191.887,214.91,194.254,213.871,196.62z"/>
	<path fill-rule="evenodd" clip-rule="evenodd" fill="#0D0806" d="M226.275,80.13c1.323-1.621,2.646-3.241,3.969-4.862
		c1.091-0.345,1.255-2.131,2.786-1.793c0.054,1.768-0.653,3.508-0.957,5.143C231.573,81.304,228.786,81.658,226.275,80.13z"/>
	<path fill-rule="evenodd" clip-rule="evenodd" fill="#0D0806" d="M281.093,79.974c-0.019-1.3-0.173-2.662,1.447-3.23
		C282.428,77.987,281.938,79.06,281.093,79.974z"/>
	<path fill-rule="evenodd" clip-rule="evenodd" fill="#0D0806" d="M220.244,161.535c-0.032-0.332-0.064-0.664-0.097-0.996
		C220.18,160.871,220.212,161.203,220.244,161.535z"/>
	<path fill-rule="evenodd" clip-rule="evenodd" fill="#0D0806" d="M184.178,186.607c-3.234-7.887-3.816-16.028-2.346-24.369
		c-0.168,4.875,0.815,9.62,1.701,14.363C184.154,179.926,185.998,183.138,184.178,186.607z"/>
	<path fill-rule="evenodd" clip-rule="evenodd" fill="#0D0806" d="M181.957,161.529c0.053-2.247-0.405-4.611,1.491-6.43
		C183.521,157.375,183.771,159.691,181.957,161.529z"/>
	<path fill-rule="evenodd" clip-rule="evenodd" fill="#0D0806" d="M264.499,64.982c-0.175,1.229-1.057,1.768-2.152,1.978
		c-0.661,0.127-1.55-0.009-1.362-0.891c0.194-0.908,0.998-1.57,1.947-1.834C263.593,64.05,264.269,64.065,264.499,64.982z"/>
	<path fill-rule="evenodd" clip-rule="evenodd" fill="#010101" d="M209.095,107.14c0.334,0.269,0.668,0.539,1.002,0.807
		c-0.335,0.268-0.669,0.536-1.003,0.804l-0.012-0.011c0-0.528,0-1.057-0.001-1.586L209.095,107.14z"/>
	<path fill-rule="evenodd" clip-rule="evenodd" fill="#0D0806" d="M209.081,107.154c0.001,0.529,0.001,1.058,0.001,1.586
		c-0.504-0.159-1.163-0.264-0.953-0.979C208.207,107.489,208.75,107.353,209.081,107.154z"/>
</g>
<circle fill-rule="evenodd" clip-rule="evenodd" fill="#010101" cx="201.429" cy="113.5" r="15.026"/>
</svg>
