<?xml version="1.0" encoding="utf-8"?>
<!-- Generator: Adobe Illustrator 17.1.0, SVG Export Plug-In . SVG Version: 6.00 Build 0)  -->
<!DOCTYPE svg PUBLIC "-//W3C//DTD SVG 1.1//EN" "http://www.w3.org/Graphics/SVG/1.1/DTD/svg11.dtd">
<svg version="1.1" id="Layer_1" xmlns="http://www.w3.org/2000/svg" xmlns:xlink="http://www.w3.org/1999/xlink" x="0px" y="0px"
	 viewBox="0 0 32 32" enable-background="new 0 0 32 32" xml:space="preserve">
<path fill="#FFFFFF" d="M28.072,24.749l-6.046-6.046c0.912-1.499,1.437-3.256,1.437-5.139c0-5.466-4.738-10.203-10.205-10.203
	c-5.466,0-9.898,4.432-9.898,9.898c0,5.467,4.736,10.205,10.203,10.205c1.818,0,3.52-0.493,4.984-1.349l6.078,6.08
	c0.597,0.595,1.56,0.595,2.154,0l1.509-1.507c0.594-0.595,0.378-1.344-0.216-1.938V24.749z M6.406,13.258
	c0-3.784,3.067-6.853,6.851-6.853c3.786,0,7.158,3.373,7.158,7.158s-3.067,6.853-6.853,6.853S6.405,17.043,6.406,13.258
	L6.406,13.258z"/>
</svg>
