<?xml version="1.0" encoding="utf-8"?>
<!-- Generator: Adobe Illustrator 16.2.1, SVG Export Plug-In . SVG Version: 6.00 Build 0)  -->
<!DOCTYPE svg PUBLIC "-//W3C//DTD SVG 1.1//EN" "http://www.w3.org/Graphics/SVG/1.1/DTD/svg11.dtd">
<svg version="1.1" id="Layer_1" xmlns="http://www.w3.org/2000/svg" xmlns:xlink="http://www.w3.org/1999/xlink" x="0px" y="0px"
	 width="400px" height="225px" viewBox="0 0 400 225" enable-background="new 0 0 400 225" xml:space="preserve">
<g>
	<path fill-rule="evenodd" clip-rule="evenodd" d="M55.185,197.429c-0.796-30.593,5.385-59.198,19.823-85.518
		c31.69-57.771,82.984-82.77,146.892-84.942c24.927-0.849,49.909-0.418,74.859-0.073c32.013,0.44,51.087,19.944,51.106,51.652
		c0.018,22.815,0.41,45.646-0.326,68.438c-0.17,5.318-3.104,11.511-6.715,15.57c-9.46,10.631-19.765,20.554-30.24,30.212
		c-3.122,2.882-7.911,5.596-11.947,5.607c-79.496,0.263-158.994,0.116-238.491,0.024C59.101,198.397,58.058,198.005,55.185,197.429z
		 M257.674,65.574c-8.943,14.265-13.807,28.342-5.189,43.407c6.12,10.706,15.332,17.214,28.951,17.276
		c2.574-7.137,5.041-13.979,8.066-22.368C264.322,102.749,258.788,86.051,257.674,65.574z"/>
	<path fill-rule="evenodd" clip-rule="evenodd" fill="#FFFFFF" d="M257.674,65.574c1.114,20.477,6.648,37.175,31.828,38.315
		c-3.025,8.39-5.492,15.231-8.066,22.368c-13.619-0.062-22.831-6.57-28.951-17.276C243.867,93.916,248.73,79.839,257.674,65.574z"/>
</g>
</svg>
