<?xml version="1.0" encoding="utf-8"?>
<!-- Generator: Adobe Illustrator 16.2.1, SVG Export Plug-In . SVG Version: 6.00 Build 0)  -->
<!DOCTYPE svg PUBLIC "-//W3C//DTD SVG 1.1//EN" "http://www.w3.org/Graphics/SVG/1.1/DTD/svg11.dtd">
<svg version="1.1" id="Layer_1" xmlns="http://www.w3.org/2000/svg" xmlns:xlink="http://www.w3.org/1999/xlink" x="0px" y="0px"
	 width="282.007px" height="223.305px" viewBox="0 0 282.007 223.305" enable-background="new 0 0 282.007 223.305"
	 xml:space="preserve">
<g>
	<path fill="none" d="M37.11,0H0v37.103C0,16.623,16.615,0,37.11,0z"/>
	<path fill="none" d="M281.999,36.794V0h-37.095C265.296,0,281.832,16.457,281.999,36.794z"/>
	<path fill="none" d="M0,186.186v37.119h37.11C16.615,223.305,0,206.697,0,186.186z"/>
	<path fill="none" d="M244.904,223.305h37.095v-36.81C281.832,206.863,265.296,223.305,244.904,223.305z"/>
	<path fill="#010101" d="M179.226,73.421h-76.453v76.454h76.453V73.421z M167.61,118.82l-19.439,0.008v19.432l-14.335,0.008v-19.439
		h-19.448l0.008-14.344h19.439V85.045l14.335-0.008v19.447h19.447L167.61,118.82z"/>
	<path fill="#010101" d="M281.999,186.495V36.794C281.832,16.457,265.296,0,244.904,0H37.11C16.615,0,0,16.623,0,37.103v149.083
		c0,20.512,16.615,37.119,37.11,37.119h207.794C265.296,223.305,281.832,206.863,281.999,186.495z M65.838,204.153H37.103
		c-9.903,0-17.943-8.048-17.943-17.968v-28.719h17.943v28.735h28.735V204.153z M65.838,37.103H37.103v28.735H19.159V37.119
		c0-9.919,8.04-17.967,17.943-17.967h28.735V37.103z M193.569,164.211H88.445V59.086h105.124V164.211z M262.855,186.202
		c0,9.92-8.048,17.951-17.96,17.951h-28.719v-17.951h28.728v-28.735h17.951V186.202z M262.855,65.838h-17.951V37.103h-28.728V19.151
		h28.719c9.912,0,17.96,8.031,17.96,17.951V65.838z"/>
</g>
</svg>
