<?xml version="1.0" encoding="utf-8"?>
<!-- Generator: Adobe Illustrator 16.2.1, SVG Export Plug-In . SVG Version: 6.00 Build 0)  -->
<!DOCTYPE svg PUBLIC "-//W3C//DTD SVG 1.1//EN" "http://www.w3.org/Graphics/SVG/1.1/DTD/svg11.dtd">
<svg version="1.1" id="Layer_1" xmlns="http://www.w3.org/2000/svg" xmlns:xlink="http://www.w3.org/1999/xlink" x="0px" y="0px"
	 width="400px" height="225px" viewBox="-7.802 0.324 400 225" enable-background="new -7.802 0.324 400 225" xml:space="preserve">
<g>
	<g>
		<path fill="#FFFFFF" d="M52.884,181.336c-9.631,0-18.758,0.078-27.882-0.054c-2.471-0.034-5.124-0.247-7.361-1.177
			c-5.923-2.46-8.72-8.499-7.556-15.271c0.502-2.919,2.011-5.517,4.177-7.454c-2.168,1.938-3.677,4.536-4.18,7.457
			c-1.165,6.771,1.633,12.811,7.556,15.271c2.237,0.929,4.891,1.141,7.361,1.176c9.124,0.132,18.251,0.054,27.882,0.054
			c0,9.415,0,18.191,0,27.238c28.544,0,56.571,0,84.772,0c0-0.001,0-0.002,0-0.003c-28.2,0-56.227,0-84.769,0
			C52.884,199.529,52.884,190.752,52.884,181.336z"/>
		<path fill="#FFFFFF" d="M196.149,189.972c0.115-3.933-1.119-5.856-4.831-7.307c-29.326-11.461-58.065-9.751-86.362,3.421
			c-0.65,0.303-1.221,0.776-1.854,1.367c0.632-0.59,1.202-1.061,1.851-1.363c28.298-13.172,57.037-14.883,86.362-3.422
			c3.713,1.45,4.946,3.375,4.831,7.307c-0.286,9.903-0.093,19.82-0.093,29.908C196.054,209.795,195.86,199.878,196.149,189.972z"/>
		<path fill="#FFFFFF" d="M317.824,181.339c-1.867,0-3.732,0-6.203,0c0,0.001,0,0.002,0,0.003c2.468,0,4.334,0,6.2,0
			c14.229,0,28.457,0.055,42.686-0.021c4.337-0.021,7.876-1.399,10.319-3.805c-2.443,2.403-5.981,3.78-10.316,3.803
			C346.281,181.393,332.052,181.339,317.824,181.339z"/>
		<path fill="#FFFFFF" d="M103.745,71.221c-0.37,0.073-0.74,0.146-1.11,0.22c-0.312,5.039-0.626,10.078-0.995,15.98
			c4.998-0.457,9.085-0.831,13.943-1.276C111.271,80.707,107.507,75.963,103.745,71.221z"/>
		<path fill="#FFFFFF" d="M44.958,160.757c2.246-0.545,3.922-0.619,5.258-1.334c5.556-2.977,11.122-5.967,16.467-9.3
			c4.763-2.972,5.254-5.322,3.38-10.328C62.044,146.49,53.878,153.309,44.958,160.757z"/>
		<path fill="#FFFFFF" d="M201.991,74.743c-2.208-11.977,3.421-21.039,10.203-30.143c4.035-5.418,7.921-10.95,11.772-16.548
			c-3.853,5.599-7.738,11.132-11.775,16.551c-6.782,9.104-12.41,18.165-10.203,30.144c0.263,1.426,0.005,2.374-0.659,2.993
			C201.995,77.121,202.254,76.172,201.991,74.743z"/>
		<path fill="#FFFFFF" d="M51.849,145.515c-1.311,1.255-2.623,2.509-3.936,3.761c-0.477,0.454-0.966,0.876-1.468,1.265
			c0.502-0.39,0.993-0.812,1.47-1.267C49.227,148.023,50.539,146.77,51.849,145.515z"/>
		<path fill="#FFFFFF" d="M311.618,219.883c0-0.001,0-0.002,0-0.003c-33.891,0.003-67.316,0.003-101.074,0.003
			C244.296,219.883,277.735,219.883,311.618,219.883z"/>
		<path fill="#FFFFFF" d="M70.681,120.657c0.323-10.264,0.046-20.549,0.192-30.822c0.027-1.918,0.489-4.146,1.547-5.683
			c8.593-12.484,17.377-24.838,26.426-37.693l0,0c-9.05,12.856-17.835,25.211-26.429,37.696c-1.057,1.536-1.521,3.765-1.547,5.683
			c-0.146,10.274,0.13,20.558-0.192,30.822c-0.092,2.943-0.892,6.566-2.754,8.623c-0.666,0.735-1.36,1.445-2.037,2.171
			c0.678-0.726,1.373-1.438,2.04-2.174C69.79,127.225,70.588,123.601,70.681,120.657z"/>
		<path fill="#FFFFFF" d="M264.814,131.598c-5.718-6.932-11.522-13.793-17.226-20.738c-1.128-1.373-1.938-3.007-2.895-4.521
			c-1.014,17.545-1.073,34.711-0.854,51.872c0.015,0.938,2.358,1.847,4.117,3.135c0.573-4.543,0.711-7.714,1.425-10.749
			c0.765-3.257,2.715-6.008,6.412-5.967c3.998,0.045,5.622,3.164,6.369,6.568c0.402,1.819,0.334,3.79,0.185,5.67
			c-0.265,3.355,1.229,4.275,4.959,3.238c0-8.316,0.108-16.513-0.109-24.699C267.164,134.112,265.773,132.761,264.814,131.598z"/>
		<path fill="#FFFFFF" d="M104.053,117.614c-0.879,0.121-2.196,1.779-2.208,2.744c-0.154,12.481-0.145,24.967-0.033,37.45
			c0.008,0.884,1.141,1.758,1.75,2.637c0.496-0.974,1.267-1.901,1.438-2.93c0.434-2.615,0.177-5.422,1.034-7.858
			c0.5-1.423,2.805-3.346,3.943-3.134c1.583,0.294,3.523,2.146,4.064,3.751c0.775,2.305,0.271,5.011,0.639,7.497
			c0.141,0.952,1.179,1.769,1.808,2.649c0.5-0.852,1.432-1.699,1.438-2.554c0.091-13.562,0.065-27.123,0.065-41.448
			C112.809,116.818,108.402,117.011,104.053,117.614z"/>
		<path fill="#FFFFFF" d="M267.042,122.673c0-15.314,0-30.529,0-45.93c-7.717-1.061-15.169-2.086-22.562-3.102
			C241.134,87.289,253.608,114.108,267.042,122.673z"/>
		<path fill="#FFFFFF" d="M266.814,62.763c-6.892-9.469-13.787-18.938-20.681-28.406c-0.364,0.087-0.728,0.173-1.092,0.26
			c-0.416,8.072-0.832,16.144-1.285,24.924c7.826,1.487,15.211,2.889,22.596,4.292C266.507,63.475,266.659,63.118,266.814,62.763z"
			/>
		<path fill="#FFFFFF" d="M201.364,92.246c-33.312,2.725-66.351,5.429-99.316,8.125c0,3.752,0,6.837,0,10.208
			c1.227,0,2.145,0.061,3.051-0.009c29.562-2.304,59.123-4.629,88.685-6.928c8.861-0.689,8.867-0.659,8.155-9.587
			C201.904,93.614,201.671,93.185,201.364,92.246z"/>
		<path d="M65.887,131.454c-4.518,4.834-9.25,9.478-14.039,14.061C56.638,140.932,61.37,136.289,65.887,131.454z"/>
		<path d="M374.575,167.547c-0.088-8.109-5.779-13.499-14.37-13.553c-5.216-0.033-10.435,0.093-15.65-0.037
			c-1.838-0.047-3.853-0.255-5.465-1.045c-21.195-10.369-39.42-24.363-53.196-43.792c-2.463-3.472-3.869-6.965-3.671-11.362
			c0.321-7.1-0.552-14.296,0.233-21.323c1.264-11.305-1.664-20.652-9.945-28.517c-2.72-2.583-4.739-5.903-7.086-8.881
			c-8.683-11.007-17.367-22.013-26.25-33.271c-5.171,7.49-10.159,14.945-15.208,22.286c5.049-7.339,10.036-14.794,15.206-22.283
			c8.881,11.258,17.566,22.263,26.248,33.271c2.349,2.977,4.367,6.298,7.087,8.881c8.282,7.865,11.209,17.212,9.945,28.517
			c-0.784,7.026,0.088,14.224-0.233,21.323c-0.199,4.395,1.209,7.889,3.672,11.363c13.774,19.428,32.001,33.422,53.195,43.792
			c1.613,0.789,3.627,0.998,5.465,1.045c5.216,0.13,10.435,0.003,15.65,0.037c8.59,0.053,14.281,5.443,14.37,13.553
			c0.045,4.131-1.303,7.562-3.746,9.966C373.271,175.112,374.62,171.68,374.575,167.547z"/>
		<path d="M126.576,81.996c1.094,1.289,3.416,2.342,5.075,2.214c22.201-1.697,44.381-3.656,66.574-5.449
			c1.365-0.11,2.438-0.4,3.104-1.021c-0.666,0.619-1.737,0.908-3.101,1.018c-22.193,1.793-44.373,3.752-66.574,5.45
			c-1.66,0.125-3.982-0.927-5.076-2.214c-4.293-5.051-8.211-10.421-12.28-15.664c-5.086-6.553-10.182-13.098-15.449-19.874
			c-0.001,0.001-0.001,0.002-0.002,0.003c5.268,6.776,10.363,13.321,15.449,19.874C118.364,71.577,122.283,76.947,126.576,81.996z"
			/>
		<path d="M34.047,153.887c4.746,0.484,8.882-0.624,12.398-3.347c-3.516,2.722-7.65,3.828-12.395,3.345
			c-3.753-0.383-7.592-0.239-11.371,0.002c-3.259,0.208-6.187,1.501-8.417,3.494c2.23-1.992,5.157-3.283,8.414-3.491
			C26.455,153.649,30.294,153.504,34.047,153.887z"/>
		<path d="M311.618,219.88c0.001,0,0.002,0,0.003,0c0-12.96,0-25.498,0-38.538c-0.001,0-0.002,0-0.003,0
			C311.618,194.382,311.618,206.92,311.618,219.88z"/>
		<path d="M137.653,180.957c0,10.063,0,18.666,0,27.617c0.001,0,0.002,0,0.003,0c0-8.951,0-17.556,0-27.62
			c-12.275,2.86-23.952,5.58-36.781,8.568c0.9-0.772,1.595-1.479,2.227-2.069c-0.633,0.59-1.329,1.298-2.23,2.072
			C113.702,186.537,125.378,183.818,137.653,180.957z"/>
		<path d="M360.202,153.997c-5.216-0.034-10.435,0.093-15.65-0.037c-1.838-0.047-3.852-0.256-5.465-1.045
			c-21.194-10.369-39.421-24.363-53.195-43.792c-2.463-3.474-3.871-6.968-3.672-11.363c0.321-7.1-0.551-14.297,0.233-21.323
			c1.264-11.305-1.663-20.652-9.945-28.517c-2.72-2.583-4.738-5.904-7.087-8.881c-8.682-11.007-17.367-22.013-26.248-33.271
			c-5.17,7.489-10.157,14.943-15.206,22.283c-3.852,5.598-7.737,11.13-11.772,16.548c-6.782,9.104-12.411,18.167-10.203,30.143
			c0.263,1.429,0.004,2.378-0.662,2.997c-0.666,0.621-1.738,0.911-3.104,1.021c-22.193,1.793-44.373,3.752-66.574,5.449
			c-1.659,0.128-3.981-0.925-5.075-2.214c-4.293-5.05-8.212-10.419-12.28-15.663c-5.086-6.553-10.181-13.097-15.449-19.874
			c-9.049,12.855-17.833,25.208-26.426,37.693c-1.058,1.537-1.521,3.765-1.547,5.683c-0.146,10.273,0.13,20.558-0.192,30.822
			c-0.093,2.943-0.891,6.567-2.754,8.623c-0.667,0.736-1.362,1.448-2.04,2.174c-4.517,4.835-9.25,9.478-14.039,14.061
			c-1.31,1.255-2.622,2.508-3.933,3.759c-0.478,0.455-0.968,0.877-1.47,1.267c-3.517,2.723-7.652,3.831-12.398,3.347
			c-3.753-0.383-7.592-0.238-11.371,0.003c-3.257,0.208-6.184,1.499-8.414,3.491c-2.167,1.938-3.675,4.535-4.177,7.454
			c-1.164,6.771,1.633,12.811,7.556,15.271c2.237,0.93,4.89,1.143,7.361,1.177c9.124,0.132,18.251,0.054,27.882,0.054
			c0,9.416,0,18.192,0,27.238c28.542,0,56.569,0,84.769,0c0-8.951,0-17.554,0-27.617c-12.275,2.86-23.951,5.58-36.782,8.568
			c0.902-0.774,1.598-1.482,2.23-2.072c0.634-0.591,1.205-1.064,1.854-1.367c28.296-13.172,57.036-14.882,86.362-3.421
			c3.712,1.45,4.946,3.374,4.831,7.307c-0.289,9.906-0.096,19.823-0.096,29.911c4.846,0,9.661,0,14.49,0
			c33.758,0,67.184,0,101.074-0.003c0-12.96,0-25.498,0-38.538c0.001,0,0.002,0,0.003,0c0-0.001,0-0.002,0-0.003
			c2.471,0,4.336,0,6.203,0c14.228,0,28.457,0.054,42.686-0.021c4.335-0.022,7.873-1.399,10.316-3.803
			c2.443-2.404,3.791-5.835,3.746-9.966C374.483,159.441,368.792,154.05,360.202,153.997z M66.683,150.123
			c-5.345,3.333-10.911,6.323-16.467,9.3c-1.335,0.715-3.012,0.789-5.258,1.334c8.919-7.448,17.086-14.267,25.104-20.962
			C71.937,144.801,71.446,147.152,66.683,150.123z M102.635,71.441c0.371-0.074,0.741-0.146,1.11-0.22
			c3.762,4.742,7.525,9.486,11.838,14.924c-4.858,0.445-8.945,0.819-13.943,1.276C102.009,81.519,102.323,76.48,102.635,71.441z
			 M117.925,157.866c-0.006,0.854-0.938,1.702-1.438,2.554c-0.629-0.881-1.667-1.697-1.808-2.649
			c-0.368-2.486,0.137-5.192-0.639-7.497c-0.541-1.605-2.48-3.457-4.064-3.751c-1.138-0.212-3.442,1.711-3.943,3.134
			c-0.856,2.437-0.6,5.243-1.034,7.858c-0.171,1.028-0.941,1.956-1.438,2.93c-0.609-0.879-1.743-1.753-1.75-2.637
			c-0.111-12.483-0.121-24.969,0.033-37.45c0.012-0.965,1.329-2.623,2.208-2.744c4.349-0.603,8.755-0.796,13.937-1.195
			C117.99,130.743,118.016,144.304,117.925,157.866z M201.723,160.318c-24.383,0-48.482,0-73.011,0c0-14.72,0-29.438,0-44.704
			c24.117-1.864,48.269-3.733,73.011-5.645C201.723,127.073,201.723,143.56,201.723,160.318z M193.784,103.643
			c-29.562,2.299-59.123,4.624-88.685,6.928c-0.907,0.07-1.824,0.009-3.051,0.009c0-3.372,0-6.456,0-10.208
			c32.965-2.697,66.005-5.401,99.316-8.125c0.307,0.939,0.54,1.368,0.575,1.81C202.651,102.984,202.646,102.953,193.784,103.643z
			 M245.042,34.616c0.364-0.086,0.728-0.173,1.092-0.26c6.894,9.468,13.789,18.938,20.681,28.406
			c-0.155,0.355-0.308,0.712-0.462,1.069c-7.385-1.403-14.77-2.805-22.596-4.292C244.21,50.76,244.626,42.689,245.042,34.616z
			 M267.042,76.743c0,15.4,0,30.615,0,45.93c-13.434-8.565-25.908-35.384-22.562-49.031
			C251.873,74.657,259.325,75.682,267.042,76.743z M267.308,160.106c-3.73,1.037-5.224,0.117-4.959-3.238
			c0.149-1.88,0.218-3.851-0.185-5.67c-0.747-3.404-2.371-6.523-6.369-6.568c-3.697-0.041-5.647,2.71-6.412,5.967
			c-0.714,3.035-0.852,6.206-1.425,10.749c-1.759-1.288-4.103-2.196-4.117-3.135c-0.22-17.161-0.16-34.327,0.854-51.872
			c0.956,1.514,1.767,3.148,2.895,4.521c5.703,6.945,11.508,13.807,17.226,20.738c0.959,1.163,2.35,2.514,2.384,3.809
			C267.416,143.593,267.308,151.789,267.308,160.106z M282.616,160.219c0-4.456,0-8.725,0-13.646
			c7.836,4.569,15.159,8.839,23.404,13.646C297.646,160.219,290.28,160.219,282.616,160.219z M336.175,160.838
			c-4.5-0.408-9.588,0.4-13.392-1.443c-12.724-6.167-25.053-13.167-37.349-20.173c-1.594-0.906-2.816-3.646-2.984-5.641
			c-0.422-5.007-0.14-10.071-0.14-15.114c0.345-0.207,0.689-0.415,1.034-0.622c14.341,18.179,32.52,31.429,53.046,41.669
			C336.319,159.955,336.246,160.396,336.175,160.838z"/>
	</g>
	<path fill="#FFFFFF" d="M201.364,92.246c0.306,0.938,0.54,1.368,0.575,1.811c0.712,8.927,0.707,8.898-8.154,9.587
		c-29.562,2.298-59.123,4.624-88.685,6.928c-0.907,0.07-1.825,0.009-3.052,0.009c0-3.372,0-6.455,0-10.208
		C135.013,97.675,168.053,94.971,201.364,92.246z"/>
	<path fill="#FFFFFF" d="M244.479,73.642c7.394,1.016,14.846,2.042,22.562,3.103c0,15.4,0,30.615,0,45.93
		C253.608,114.107,241.134,87.289,244.479,73.642z"/>
	<path fill="#FFFFFF" d="M267.308,160.106c-3.73,1.037-5.224,0.117-4.959-3.236c0.148-1.882,0.218-3.852-0.185-5.672
		c-0.748-3.403-2.372-6.522-6.369-6.567c-3.697-0.042-5.647,2.71-6.412,5.967c-0.714,3.035-0.852,6.206-1.425,10.749
		c-1.759-1.288-4.103-2.197-4.117-3.135c-0.219-17.162-0.16-34.327,0.854-51.872c0.955,1.514,1.767,3.149,2.895,4.521
		c5.703,6.944,11.508,13.806,17.226,20.739c0.959,1.162,2.35,2.514,2.384,3.808C267.417,143.593,267.308,151.787,267.308,160.106z"
		/>
	<path fill="#FFFFFF" d="M117.99,116.418c0,14.325,0.026,27.887-0.064,41.448c-0.005,0.854-0.937,1.702-1.438,2.554
		c-0.629-0.88-1.668-1.697-1.808-2.649c-0.367-2.486,0.137-5.192-0.639-7.497c-0.541-1.605-2.48-3.457-4.064-3.751
		c-1.138-0.212-3.442,1.711-3.942,3.134c-0.857,2.437-0.6,5.243-1.034,7.858c-0.171,1.028-0.941,1.956-1.438,2.93
		c-0.609-0.879-1.743-1.753-1.75-2.637c-0.111-12.483-0.121-24.969,0.033-37.45c0.012-0.965,1.329-2.624,2.208-2.744
		C108.402,117.011,112.809,116.817,117.99,116.418z"/>
	<path fill="#FFFFFF" d="M243.757,59.541c0.453-8.781,0.869-16.852,1.284-24.924c0.364-0.086,0.728-0.173,1.093-0.26
		c6.892,9.468,13.787,18.938,20.68,28.406c-0.154,0.355-0.307,0.712-0.463,1.069C258.968,62.429,251.583,61.028,243.757,59.541z"/>
	<path fill="#FFFFFF" d="M44.958,160.757c8.919-7.448,17.086-14.267,25.104-20.962c1.874,5.006,1.383,7.356-3.38,10.328
		c-5.345,3.333-10.911,6.323-16.467,9.3C48.882,160.138,47.204,160.212,44.958,160.757z"/>
	<path fill="#FFFFFF" d="M101.64,87.421c0.368-5.903,0.682-10.942,0.996-15.981c0.37-0.073,0.74-0.146,1.11-0.22
		c3.762,4.743,7.524,9.487,11.838,14.924C110.727,86.59,106.638,86.964,101.64,87.421z"/>
</g>
</svg>
