<?xml version="1.0" encoding="utf-8"?>
<!-- Generator: Adobe Illustrator 16.2.1, SVG Export Plug-In . SVG Version: 6.00 Build 0)  -->
<!DOCTYPE svg PUBLIC "-//W3C//DTD SVG 1.1//EN" "http://www.w3.org/Graphics/SVG/1.1/DTD/svg11.dtd">
<svg version="1.1" id="Layer_1" xmlns="http://www.w3.org/2000/svg" xmlns:xlink="http://www.w3.org/1999/xlink" x="0px" y="0px"
	 width="600px" height="122.426px" viewBox="0 0 600 122.426" enable-background="new 0 0 600 122.426" xml:space="preserve">
<g>
	<path fill="#FFFFFF" d="M210.846-167.729v-13.97h-58.089v13.97c0,0,19.177,0,20.221,0v55.148c-1.044,0-20.221,0-20.221,0v13.97
		h58.089v-13.97c0,0-21.012,0-22.059,0v-55.148C189.834-167.729,210.846-167.729,210.846-167.729z"/>
	<polygon fill="#FFFFFF" points="382.719,-181.516 382.719,-167.912 394.116,-167.912 394.116,-112.396 382.719,-112.396 
		382.719,-98.795 452.94,-98.795 452.94,-125.632 438.968,-125.632 438.968,-112.396 409.188,-112.396 409.188,-134.824 
		431.248,-134.824 431.248,-148.428 409.188,-148.428 409.188,-167.912 437.865,-167.912 437.865,-154.677 452.94,-154.677 
		452.94,-181.516 	"/>
	<g>
		<path fill="#FFFFFF" d="M479.776-201v122.426h120.221V-201H479.776z M550.364-98.059c-30.146,0-43.749,0.366-43.749,0.366v-83.455
			h35.662c0,0,36.764-4.043,36.764,29.045v23.162C579.041-128.94,580.51-98.059,550.364-98.059z"/>
		<path fill="#FFFFFF" d="M548.527-167.544h-24.999v55.147c0,0,13.601,0,26.102,0s12.867-16.178,12.867-16.178s0-2.572,0-21.322
			C562.497-168.648,548.527-167.544,548.527-167.544z"/>
		<path fill="#FFFFFF" d="M319.852-157.251c0-11.764-12.499-9.927-12.499-9.927h-23.162v22.796c0,0,12.499-0.368,22.793-0.368
			S319.852-146.956,319.852-157.251z"/>
		<path fill="#FFFFFF" d="M240.44-78.574h120.22V-201H240.44V-78.574z M268.013-181.516h47.794c0,0,20.588-1.103,20.588,21.324
			s-12.499,23.53-12.499,23.53s12.499,0.732,12.499,18.013c0,17.281,0,19.118,0,19.118h-16.544v-18.015c0,0,0-13.971-9.559-13.971
			c-9.558,0-26.102,0.369-26.102,0.369v31.984h-16.178V-181.516z"/>
		<path fill="#FFFFFF" d="M0-78.574h120.22V-201H0V-78.574z M26.839-181.147l11.397,62.867l14.705-62.867l18.015,0.368
			l14.707,63.603l11.029-63.971H112.5l-16.91,82.353H75L61.764-158.72L47.426-98.427H27.207l-16.912-82.721H26.839z"/>
		<path d="M284.191-131.146c0,0,16.544-0.369,26.102-0.369c9.559,0,9.559,13.971,9.559,13.971v18.015h16.544c0,0,0-1.837,0-19.118
			c0-17.28-12.499-18.013-12.499-18.013s12.499-1.104,12.499-23.53s-20.588-21.324-20.588-21.324h-47.794v82.354h16.178V-131.146z
			 M284.191-167.178h23.162c0,0,12.499-1.837,12.499,9.927c0,10.295-2.572,12.501-12.867,12.501s-22.793,0.368-22.793,0.368
			V-167.178z"/>
		<path d="M579.041-152.103c0-33.088-36.764-29.045-36.764-29.045h-35.662v83.455c0,0,13.604-0.366,43.749-0.366
			s28.677-30.882,28.677-30.882V-152.103z M562.497-128.574c0,0-0.366,16.178-12.867,16.178s-26.102,0-26.102,0v-55.147h24.999
			c0,0,13.97-1.104,13.97,17.647C562.497-131.146,562.497-128.574,562.497-128.574z"/>
		<polygon points="47.426,-98.427 61.764,-158.72 75,-98.795 95.589,-98.795 112.5,-181.147 96.692,-181.147 85.663,-117.177 
			70.956,-180.779 52.941,-181.147 38.236,-118.28 26.839,-181.147 10.295,-181.147 27.207,-98.427 		"/>
	</g>
</g>
<g>
	<path fill="#000333" d="M210.846,33.271v-13.97h-58.089v13.97c0,0,19.177,0,20.221,0V88.42c-1.044,0-20.221,0-20.221,0v13.97
		h58.089V88.42c0,0-21.012,0-22.059,0V33.271C189.834,33.271,210.846,33.271,210.846,33.271z"/>
	<polygon fill="#000333" points="382.719,19.484 382.719,33.088 394.116,33.088 394.116,88.604 382.719,88.604 382.719,102.205 
		452.94,102.205 452.94,75.368 438.968,75.368 438.968,88.604 409.188,88.604 409.188,66.176 431.248,66.176 431.248,52.572 
		409.188,52.572 409.188,33.088 437.865,33.088 437.865,46.323 452.94,46.323 452.94,19.484 	"/>
	<g>
		<path fill="#000333" d="M479.776,0v122.426h120.221V0H479.776z M550.364,102.941c-30.146,0-43.749,0.366-43.749,0.366V19.853
			h35.662c0,0,36.764-4.043,36.764,29.045V72.06C579.041,72.06,580.51,102.941,550.364,102.941z"/>
		<path fill="#000333" d="M548.527,33.456h-24.999v55.147c0,0,13.601,0,26.102,0s12.867-16.178,12.867-16.178s0-2.572,0-21.322
			C562.497,32.352,548.527,33.456,548.527,33.456z"/>
		<path fill="#000333" d="M319.852,43.749c0-11.764-12.499-9.927-12.499-9.927h-23.162v22.796c0,0,12.499-0.368,22.793-0.368
			S319.852,54.044,319.852,43.749z"/>
		<path fill="#000333" d="M240.44,122.426h120.22V0H240.44V122.426z M268.013,19.484h47.794c0,0,20.588-1.103,20.588,21.324
			s-12.499,23.53-12.499,23.53s12.499,0.732,12.499,18.013c0,17.281,0,19.118,0,19.118h-16.544V83.455c0,0,0-13.971-9.559-13.971
			c-9.558,0-26.102,0.369-26.102,0.369v31.984h-16.178V19.484z"/>
		<path fill="#000333" d="M0,122.426h120.22V0H0V122.426z M26.839,19.853L38.236,82.72l14.705-62.867l18.015,0.368l14.707,63.603
			l11.029-63.971H112.5l-16.91,82.353H75L61.764,42.28l-14.338,60.293H27.207L10.295,19.853H26.839z"/>
	</g>
</g>
</svg>
