<svg baseProfile="tiny" xmlns="http://www.w3.org/2000/svg" preserveAspectRatio="xMinYMin meet" viewBox="0 0 2100 100" width="2100" height="100"><path stroke="#000" stroke-miterlimit="10" d="M8.592.76l14.816 15.23L8.592 31.238" fill="none"/><g transform="translate(100)"><circle opacity=".75" fill="#fff" stroke="#A7A9AC" stroke-miterlimit="10" cx="16" cy="16" r="15"/><path fill="#A7A9AC" d="M23.84 11.626c-.645.293-1.338.48-2.068.54-.502-.67-1.272-1.135-2.174-1.23-1.723-.19-3.27 1.06-3.458 2.782-.027.246-.025.486.002.72-2.578-.413-4.744-1.903-6.082-3.964-.318.436-.533.955-.594 1.527-.115 1.09.33 2.1 1.11 2.75-.51-.07-.98-.26-1.376-.54l-.004.04c-.164 1.52.77 2.9 2.174 3.34-.27.05-.55.05-.836.02-.2-.02-.395-.06-.584-.11.264 1.28 1.32 2.31 2.686 2.488-1.16.724-2.56 1.074-4.023.916-.25-.026-.502-.067-.74-.122 1.285 1.035 2.873 1.73 4.635 1.92 5.744.625 9.4-3.79 9.848-7.92.017-.134.03-.27.037-.404.654-.372 1.248-.862 1.732-1.444-.588.19-1.207.29-1.848.3.69-.32 1.252-.875 1.562-1.58v-.006z"/></g><g transform="translate(200)"><g stroke="#231F20" stroke-miterlimit="10" fill="none"><circle cx="16" cy="16" r="15"/><path d="M9.396 9.532L22.613 22.75m0-13.217L9.396 22.75"/></g></g><g transform="translate(300)"><path d="M1.815 1.815L15.883 15.86 1.815 30.186m28.37 0l-14.302-14.31 14.302-14.06" stroke="#231F20" stroke-miterlimit="10" fill="none"/></g><g transform="translate(400)"><circle fill="#A7A9AC" cx="16" cy="16" r="15"/><path fill="#fff" d="M22.473 19.443c1.234-.957 1.98-2.19 1.98-3.535 0-3.043-3.783-5.506-8.455-5.506-4.668 0-8.45 2.463-8.45 5.506 0 3.037 3.782 5.502 8.45 5.502 1.027 0 2.008-.125 2.918-.344l4.79 2.39-1.233-4.013z"/></g><g transform="translate(500)"><path opacity=".75" fill="#fff" stroke="#A7A9AC" stroke-miterlimit="10" d="M1 16C1 7.714 7.715 1 16 1c8.286 0 15 6.715 15 15 0 8.286-6.715 15-15 15S1 24.287 1 16z"/><path fill="#A7A9AC" d="M22.473 19.443c1.234-.957 1.98-2.19 1.98-3.535 0-3.043-3.783-5.506-8.456-5.506-4.667 0-8.45 2.463-8.45 5.506 0 3.037 3.782 5.502 8.45 5.502 1.028 0 2.008-.125 2.918-.344l4.79 2.39-1.232-4.013z"/></g><g transform="translate(600)"><path fill="#3C589B" d="M1 16C1 7.715 7.715 1 16 1s15 6.716 15 15c0 8.286-6.715 15-15 15S1 24.286 1 16z"/><path fill="#fff" d="M18.322 10.01c.71 0 1.465.218 1.465.218l.455-2.693s-.967-.328-3.26-.328c-1.408 0-2.226.536-2.822 1.324-.566.75-.582 1.95-.582 2.73v1.77h-1.823v2.62h1.793v9.15h3.4v-9.15h2.73l.203-2.62h-2.93v-2.06c.01-.71.67-.96 1.38-.96z"/></g><g transform="translate(700)"><path opacity=".75" fill="#fff" stroke="#A7A9AC" stroke-miterlimit="10" d="M1 16C1 7.714 7.715 1 16 1c8.286 0 15 6.715 15 15 0 8.286-6.715 15-15 15S1 24.287 1 16z"/><path fill="#A7A9AC" d="M18.322 10.01c.71 0 1.465.218 1.465.218l.455-2.693s-.967-.328-3.26-.328c-1.408 0-2.227.536-2.822 1.324-.566.75-.582 1.95-.582 2.73v1.77h-1.822v2.62h1.793v9.15h3.4v-9.15h2.73l.19-2.62h-2.93v-2.06c0-.71.67-.96 1.37-.96z"/></g><g transform="translate(800)"><g stroke="#231F20" stroke-miterlimit="10" fill="none"><circle cx="16" cy="16" r="15"/><path d="M16.004 13.75v10.43m0-16.367v2.968"/></g></g><g transform="translate(900)"><path fill="#231F20" d="M1 8.145h7.126V1H1v7.145zm11.44 0h7.123V1H12.44v7.145zM23.874 1v7.145H31V1h-7.125zM1 19.572h7.126V12.43H1v7.142zm11.44 0h7.123V12.43H12.44v7.142zm11.435 0H31V12.43h-7.125v7.142zM1 31h7.126v-7.14H1V31zm11.44 0h7.123v-7.14H12.44V31zm11.435 0H31v-7.14h-7.125V31z"/></g><g transform="translate(1000)"><circle fill="#68ADD3" cx="16" cy="16" r="15"/><path fill="#fff" d="M23.84 11.626c-.645.293-1.338.48-2.068.54-.502-.67-1.273-1.135-2.174-1.23-1.723-.19-3.27 1.06-3.457 2.782-.02.246-.02.486.01.72-2.58-.413-4.74-1.903-6.08-3.964-.31.436-.53.955-.59 1.527-.11 1.09.33 2.1 1.11 2.75-.51-.07-.98-.26-1.37-.54v.04c-.163 1.52.77 2.9 2.175 3.34-.27.05-.55.05-.834.02-.2-.02-.396-.06-.585-.12.264 1.29 1.32 2.31 2.686 2.49-1.16.73-2.56 1.08-4.02.92-.25-.03-.503-.07-.74-.12 1.284 1.033 2.87 1.73 4.634 1.92 5.74.623 9.4-3.79 9.843-7.92.014-.137.03-.27.035-.407.656-.376 1.25-.866 1.73-1.45-.59.19-1.21.29-1.85.3.69-.32 1.25-.875 1.56-1.58z"/></g><g transform="translate(1100)"><circle fill="#A7A9AC" cx="16" cy="16" r="15"/><path fill="#fff" d="M23.938 10.01H8.03L16 16.27l7.938-6.26zM16 18.543l-8.762-6.887v10.332H24.76V11.633L16 18.543z"/></g><g transform="translate(1200)"><path opacity=".75" fill="#fff" stroke="#A7A9AC" stroke-miterlimit="10" d="M1 16C1 7.714 7.715 1 16 1s15 6.715 15 15c0 8.286-6.715 15-15 15S1 24.287 1 16z"/><path fill="#A7A9AC" d="M23.938 10.01H8.03L16 16.27l7.938-6.26zM16 18.543l-8.76-6.887v10.332h17.52V11.633L16 18.543z"/></g><g transform="translate(1300)"><g stroke="#231F20" stroke-miterlimit="10" fill="none"><circle cx="16" cy="16" r="15"/><path d="M16.005 7.82v16.363M24.18 16H7.82"/></g></g><g transform="translate(1400)"><path fill="#DD2127" d="M1 16C1 7.714 7.715 1 16 1s15 6.715 15 15c0 8.286-6.715 15-15 15S1 24.287 1 16z"/><path fill="#fff" d="M16.458 8.18c-4.548 0-6.84 3.26-6.84 5.978 0 1.648.62 3.114 1.958 3.66.22.087.416.002.48-.24.044-.17.15-.593.194-.77.065-.24.04-.324-.138-.533-.384-.453-.63-1.044-.63-1.88 0-2.417 1.81-4.583 4.712-4.583 2.572 0 3.984 1.57 3.984 3.67 0 2.76-1.222 5.09-3.035 5.09-1.002 0-1.752-.827-1.512-1.845.29-1.213.85-2.52.85-3.397 0-.783-.42-1.438-1.29-1.438-1.02 0-1.84 1.06-1.84 2.48 0 .903.31 1.514.31 1.514l-1.23 5.217c-.362 1.548-.05 3.446-.03 3.64.02.11.16.138.23.055.1-.125 1.317-1.632 1.73-3.135.118-.425.677-2.632.677-2.632.33.64 1.306 1.2 2.34 1.2 3.077 0 5.165-2.8 5.165-6.56 0-2.84-2.406-5.48-6.06-5.48z"/></g><g transform="translate(1500)"><path opacity=".75" fill="#fff" stroke="#A7A9AC" stroke-miterlimit="10" d="M1 16C1 7.714 7.715 1 16 1c8.286 0 15 6.715 15 15 0 8.286-6.715 15-15 15S1 24.287 1 16z"/><path fill="#A7A9AC" d="M16.46 8.18c-4.55 0-6.843 3.26-6.843 5.978 0 1.648.623 3.113 1.96 3.66.22.087.416 0 .48-.24.044-.17.15-.594.194-.77.07-.24.04-.325-.13-.534-.38-.453-.63-1.044-.63-1.878 0-2.42 1.81-4.585 4.71-4.585 2.57 0 3.99 1.57 3.99 3.67 0 2.76-1.22 5.09-3.03 5.09-1 0-1.75-.82-1.51-1.84.29-1.21.848-2.52.848-3.39 0-.78-.42-1.43-1.293-1.43-1.024 0-1.846 1.06-1.846 2.48 0 .902.305 1.513.305 1.513l-1.23 5.217c-.37 1.546-.06 3.445-.03 3.64.013.11.16.137.223.054.096-.123 1.315-1.63 1.73-3.133.115-.423.675-2.63.675-2.63.33.635 1.304 1.195 2.337 1.195 3.08 0 5.17-2.81 5.17-6.563 0-2.84-2.408-5.48-6.06-5.48h-.007z"/></g><g transform="translate(1600)"><path stroke="#231F20" stroke-miterlimit="10" d="M20.066 20.464L31 31M1 12.162C1 5.998 6.116 1 12.426 1c6.31 0 11.427 4.998 11.427 11.162s-5.117 11.162-11.427 11.162S1 18.326 1 12.162z" fill="none"/></g><g transform="translate(1700)"><path d="M-5.846 9.153V5.73H-20.08v3.423h4.955v13.514h-4.955v3.424h14.234v-3.42h-5.406V9.158h5.406zm42.116-3.38V9.11h2.793v13.604H36.27v3.333h17.21V19.47h-3.425v3.242h-7.298v-5.496h5.406v-3.333h-5.406V9.108h7.027v3.244h3.695V5.774zM60.055 1v30h29.46V1h-29.46zm17.297 25.226c-7.387 0-10.72.09-10.72.09V5.866h8.738s9.01-.993 9.01 7.115v5.68s.358 7.57-7.028 7.57zM76.9 9.198h-6.125v13.514h6.396l3.16-3.965v-5.225L76.9 9.198zM20.865 11.72c0-2.882-3.062-2.432-3.062-2.432h-5.676v5.586s3.062-.09 5.585-.09 3.153-.54 3.153-3.063zM1.405 31h29.46V1H1.405v30zM8.163 5.774h11.712S24.92 5.504 24.92 11c0 5.495-3.063 5.766-3.063 5.766s3.062.18 3.062 4.414v4.685h-4.06V21.45s0-3.423-2.346-3.423c-2.34 0-6.396.09-6.396.09v7.838H8.162V5.775zM-57.514 31h29.46V1h-29.46v30zm6.577-25.135l2.793 15.405 3.604-15.405 4.415.09 3.604 15.586 2.7-15.67h3.87l-4.147 20.18h-5.046l-3.24-14.69-3.514 14.78h-4.955l-4.144-20.27h4.053z" fill="#000333"/></g><g transform="translate(1900)"><path d="M-5.847 9.153V5.73H-20.08v3.42h4.954v13.514h-4.955v3.424H-5.85v-3.424h-5.405V9.154h5.405zm42.117-3.38V9.11h2.793v13.604H36.27v3.333h17.21V19.47h-3.424v3.242h-7.298v-5.496h5.406v-3.333h-5.406V9.108h7.027v3.244h3.695V5.774zM60.054 1v30h29.46V1h-29.46zm17.298 25.226c-7.388 0-10.72.09-10.72.09V5.866h8.737s9.007-.993 9.007 7.116v5.676c0-.002.36 7.566-7.026 7.566zM76.9 9.198h-6.125v13.514h6.396l3.155-3.965v-5.225L76.9 9.198zM20.865 11.72c0-2.882-3.063-2.432-3.063-2.432h-5.676v5.586s3.063-.09 5.586-.09 3.153-.54 3.153-3.063zM1.405 31h29.46V1H1.405v30zM8.162 5.774h11.712S24.92 5.504 24.92 11c0 5.495-3.063 5.766-3.063 5.766s3.062.18 3.062 4.414v4.685h-4.056V21.45s0-3.423-2.343-3.423c-2.34 0-6.395.09-6.395.09v7.838H8.162V5.775zM-57.514 31h29.46V1h-29.46v30zm6.576-25.135l2.793 15.406 3.604-15.404 4.413.09 3.604 15.586 2.703-15.675h3.874l-4.144 20.18h-5.046L-42.38 11.36l-3.513 14.774h-4.954l-4.145-20.27h4.054z" fill="#fff"/></g></svg>